G04 #@! TF.FileFunction,Legend,Top*
%FSLAX46Y46*%
G04 Gerber Fmt 4.6, Leading zero omitted, Abs format (unit mm)*
G04 Created by KiCad (PCBNEW (2015-08-16 BZR 6097, Git b384c94)-product) date 11/6/2015 8:34:41 PM*
%MOMM*%
G01*
G04 APERTURE LIST*
%ADD10C,0.100000*%
%ADD11C,0.150000*%
G04 APERTURE END LIST*
D10*
D11*
X193548096Y-137295000D02*
X193452858Y-137247381D01*
X193310001Y-137247381D01*
X193167143Y-137295000D01*
X193071905Y-137390238D01*
X193024286Y-137485476D01*
X192976667Y-137675952D01*
X192976667Y-137818810D01*
X193024286Y-138009286D01*
X193071905Y-138104524D01*
X193167143Y-138199762D01*
X193310001Y-138247381D01*
X193405239Y-138247381D01*
X193548096Y-138199762D01*
X193595715Y-138152143D01*
X193595715Y-137818810D01*
X193405239Y-137818810D01*
X194024286Y-138247381D02*
X194024286Y-137247381D01*
X194595715Y-138247381D01*
X194595715Y-137247381D01*
X195071905Y-138247381D02*
X195071905Y-137247381D01*
X195310000Y-137247381D01*
X195452858Y-137295000D01*
X195548096Y-137390238D01*
X195595715Y-137485476D01*
X195643334Y-137675952D01*
X195643334Y-137818810D01*
X195595715Y-138009286D01*
X195548096Y-138104524D01*
X195452858Y-138199762D01*
X195310000Y-138247381D01*
X195071905Y-138247381D01*
X201430000Y-127761904D02*
X201382381Y-127857142D01*
X201382381Y-127999999D01*
X201430000Y-128142857D01*
X201525238Y-128238095D01*
X201620476Y-128285714D01*
X201810952Y-128333333D01*
X201953810Y-128333333D01*
X202144286Y-128285714D01*
X202239524Y-128238095D01*
X202334762Y-128142857D01*
X202382381Y-127999999D01*
X202382381Y-127904761D01*
X202334762Y-127761904D01*
X202287143Y-127714285D01*
X201953810Y-127714285D01*
X201953810Y-127904761D01*
X202382381Y-127285714D02*
X201382381Y-127285714D01*
X202382381Y-126714285D01*
X201382381Y-126714285D01*
X202382381Y-126238095D02*
X201382381Y-126238095D01*
X201382381Y-126000000D01*
X201430000Y-125857142D01*
X201525238Y-125761904D01*
X201620476Y-125714285D01*
X201810952Y-125666666D01*
X201953810Y-125666666D01*
X202144286Y-125714285D01*
X202239524Y-125761904D01*
X202334762Y-125857142D01*
X202382381Y-126000000D01*
X202382381Y-126238095D01*
X192833810Y-134707381D02*
X193452858Y-134707381D01*
X193119524Y-135088333D01*
X193262382Y-135088333D01*
X193357620Y-135135952D01*
X193405239Y-135183571D01*
X193452858Y-135278810D01*
X193452858Y-135516905D01*
X193405239Y-135612143D01*
X193357620Y-135659762D01*
X193262382Y-135707381D01*
X192976667Y-135707381D01*
X192881429Y-135659762D01*
X192833810Y-135612143D01*
X193881429Y-135612143D02*
X193929048Y-135659762D01*
X193881429Y-135707381D01*
X193833810Y-135659762D01*
X193881429Y-135612143D01*
X193881429Y-135707381D01*
X194262381Y-134707381D02*
X194881429Y-134707381D01*
X194548095Y-135088333D01*
X194690953Y-135088333D01*
X194786191Y-135135952D01*
X194833810Y-135183571D01*
X194881429Y-135278810D01*
X194881429Y-135516905D01*
X194833810Y-135612143D01*
X194786191Y-135659762D01*
X194690953Y-135707381D01*
X194405238Y-135707381D01*
X194310000Y-135659762D01*
X194262381Y-135612143D01*
X195167143Y-134707381D02*
X195500476Y-135707381D01*
X195833810Y-134707381D01*
X193548096Y-132215000D02*
X193452858Y-132167381D01*
X193310001Y-132167381D01*
X193167143Y-132215000D01*
X193071905Y-132310238D01*
X193024286Y-132405476D01*
X192976667Y-132595952D01*
X192976667Y-132738810D01*
X193024286Y-132929286D01*
X193071905Y-133024524D01*
X193167143Y-133119762D01*
X193310001Y-133167381D01*
X193405239Y-133167381D01*
X193548096Y-133119762D01*
X193595715Y-133072143D01*
X193595715Y-132738810D01*
X193405239Y-132738810D01*
X194024286Y-133167381D02*
X194024286Y-132167381D01*
X194595715Y-133167381D01*
X194595715Y-132167381D01*
X195071905Y-133167381D02*
X195071905Y-132167381D01*
X195310000Y-132167381D01*
X195452858Y-132215000D01*
X195548096Y-132310238D01*
X195595715Y-132405476D01*
X195643334Y-132595952D01*
X195643334Y-132738810D01*
X195595715Y-132929286D01*
X195548096Y-133024524D01*
X195452858Y-133119762D01*
X195310000Y-133167381D01*
X195071905Y-133167381D01*
X206510000Y-127761904D02*
X206462381Y-127857142D01*
X206462381Y-127999999D01*
X206510000Y-128142857D01*
X206605238Y-128238095D01*
X206700476Y-128285714D01*
X206890952Y-128333333D01*
X207033810Y-128333333D01*
X207224286Y-128285714D01*
X207319524Y-128238095D01*
X207414762Y-128142857D01*
X207462381Y-127999999D01*
X207462381Y-127904761D01*
X207414762Y-127761904D01*
X207367143Y-127714285D01*
X207033810Y-127714285D01*
X207033810Y-127904761D01*
X207462381Y-127285714D02*
X206462381Y-127285714D01*
X207462381Y-126714285D01*
X206462381Y-126714285D01*
X207462381Y-126238095D02*
X206462381Y-126238095D01*
X206462381Y-126000000D01*
X206510000Y-125857142D01*
X206605238Y-125761904D01*
X206700476Y-125714285D01*
X206890952Y-125666666D01*
X207033810Y-125666666D01*
X207224286Y-125714285D01*
X207319524Y-125761904D01*
X207414762Y-125857142D01*
X207462381Y-126000000D01*
X207462381Y-126238095D01*
X203922381Y-128476190D02*
X203922381Y-127857142D01*
X204303333Y-128190476D01*
X204303333Y-128047618D01*
X204350952Y-127952380D01*
X204398571Y-127904761D01*
X204493810Y-127857142D01*
X204731905Y-127857142D01*
X204827143Y-127904761D01*
X204874762Y-127952380D01*
X204922381Y-128047618D01*
X204922381Y-128333333D01*
X204874762Y-128428571D01*
X204827143Y-128476190D01*
X204827143Y-127428571D02*
X204874762Y-127380952D01*
X204922381Y-127428571D01*
X204874762Y-127476190D01*
X204827143Y-127428571D01*
X204922381Y-127428571D01*
X203922381Y-127047619D02*
X203922381Y-126428571D01*
X204303333Y-126761905D01*
X204303333Y-126619047D01*
X204350952Y-126523809D01*
X204398571Y-126476190D01*
X204493810Y-126428571D01*
X204731905Y-126428571D01*
X204827143Y-126476190D01*
X204874762Y-126523809D01*
X204922381Y-126619047D01*
X204922381Y-126904762D01*
X204874762Y-127000000D01*
X204827143Y-127047619D01*
X203922381Y-126142857D02*
X204922381Y-125809524D01*
X203922381Y-125476190D01*
X193484524Y-129627381D02*
X193008333Y-129627381D01*
X192960714Y-130103571D01*
X193008333Y-130055952D01*
X193103571Y-130008333D01*
X193341667Y-130008333D01*
X193436905Y-130055952D01*
X193484524Y-130103571D01*
X193532143Y-130198810D01*
X193532143Y-130436905D01*
X193484524Y-130532143D01*
X193436905Y-130579762D01*
X193341667Y-130627381D01*
X193103571Y-130627381D01*
X193008333Y-130579762D01*
X192960714Y-130532143D01*
X193817857Y-129627381D02*
X194151190Y-130627381D01*
X194484524Y-129627381D01*
X209002381Y-126555476D02*
X209002381Y-127031667D01*
X209478571Y-127079286D01*
X209430952Y-127031667D01*
X209383333Y-126936429D01*
X209383333Y-126698333D01*
X209430952Y-126603095D01*
X209478571Y-126555476D01*
X209573810Y-126507857D01*
X209811905Y-126507857D01*
X209907143Y-126555476D01*
X209954762Y-126603095D01*
X210002381Y-126698333D01*
X210002381Y-126936429D01*
X209954762Y-127031667D01*
X209907143Y-127079286D01*
X209002381Y-126222143D02*
X210002381Y-125888810D01*
X209002381Y-125555476D01*
X229965714Y-137882381D02*
X230632381Y-137882381D01*
X230203809Y-138882381D01*
X231013333Y-138501429D02*
X231775238Y-138501429D01*
X232775238Y-138882381D02*
X232203809Y-138882381D01*
X232489523Y-138882381D02*
X232489523Y-137882381D01*
X232394285Y-138025238D01*
X232299047Y-138120476D01*
X232203809Y-138168095D01*
X233156190Y-137977619D02*
X233203809Y-137930000D01*
X233299047Y-137882381D01*
X233537143Y-137882381D01*
X233632381Y-137930000D01*
X233680000Y-137977619D01*
X233727619Y-138072857D01*
X233727619Y-138168095D01*
X233680000Y-138310952D01*
X233108571Y-138882381D01*
X233727619Y-138882381D01*
X234775238Y-137882381D02*
X235108571Y-138882381D01*
X235441905Y-137882381D01*
X235775238Y-138882381D02*
X235775238Y-137882381D01*
X236013333Y-137882381D01*
X236156191Y-137930000D01*
X236251429Y-138025238D01*
X236299048Y-138120476D01*
X236346667Y-138310952D01*
X236346667Y-138453810D01*
X236299048Y-138644286D01*
X236251429Y-138739524D01*
X236156191Y-138834762D01*
X236013333Y-138882381D01*
X235775238Y-138882381D01*
X237346667Y-138787143D02*
X237299048Y-138834762D01*
X237156191Y-138882381D01*
X237060953Y-138882381D01*
X236918095Y-138834762D01*
X236822857Y-138739524D01*
X236775238Y-138644286D01*
X236727619Y-138453810D01*
X236727619Y-138310952D01*
X236775238Y-138120476D01*
X236822857Y-138025238D01*
X236918095Y-137930000D01*
X237060953Y-137882381D01*
X237156191Y-137882381D01*
X237299048Y-137930000D01*
X237346667Y-137977619D01*
X226234571Y-139406381D02*
X226425048Y-139406381D01*
X226520286Y-139454000D01*
X226615524Y-139549238D01*
X226663143Y-139739714D01*
X226663143Y-140073048D01*
X226615524Y-140263524D01*
X226520286Y-140358762D01*
X226425048Y-140406381D01*
X226234571Y-140406381D01*
X226139333Y-140358762D01*
X226044095Y-140263524D01*
X225996476Y-140073048D01*
X225996476Y-139739714D01*
X226044095Y-139549238D01*
X226139333Y-139454000D01*
X226234571Y-139406381D01*
X227425048Y-139882571D02*
X227091714Y-139882571D01*
X227091714Y-140406381D02*
X227091714Y-139406381D01*
X227567905Y-139406381D01*
X228282191Y-139882571D02*
X227948857Y-139882571D01*
X227948857Y-140406381D02*
X227948857Y-139406381D01*
X228425048Y-139406381D01*
X220011571Y-139406381D02*
X220202048Y-139406381D01*
X220297286Y-139454000D01*
X220392524Y-139549238D01*
X220440143Y-139739714D01*
X220440143Y-140073048D01*
X220392524Y-140263524D01*
X220297286Y-140358762D01*
X220202048Y-140406381D01*
X220011571Y-140406381D01*
X219916333Y-140358762D01*
X219821095Y-140263524D01*
X219773476Y-140073048D01*
X219773476Y-139739714D01*
X219821095Y-139549238D01*
X219916333Y-139454000D01*
X220011571Y-139406381D01*
X220868714Y-140406381D02*
X220868714Y-139406381D01*
X221440143Y-140406381D01*
X221440143Y-139406381D01*
X194691000Y-125095000D02*
G75*
G03X194691000Y-125095000I-2286000J0D01*
G01*
X237236000Y-142240000D02*
G75*
G03X237236000Y-142240000I-2286000J0D01*
G01*
X229870000Y-137033000D02*
X244348000Y-137033000D01*
X244348000Y-137033000D02*
X244348000Y-128143000D01*
X244348000Y-128143000D02*
X229870000Y-128143000D01*
X229870000Y-137033000D02*
X229870000Y-128143000D01*
X221559888Y-123570096D02*
G75*
G03X221575000Y-126595000I-2484888J-1524904D01*
G01*
X221575000Y-123595000D02*
X221575000Y-126595000D01*
X221592936Y-125095000D02*
G75*
G03X221592936Y-125095000I-2517936J0D01*
G01*
X228219000Y-140843000D02*
X228219000Y-145161000D01*
X228219000Y-140843000D02*
X219583000Y-140843000D01*
X219583000Y-140843000D02*
X219583000Y-145161000D01*
X219583000Y-145161000D02*
X228219000Y-145161000D01*
X218305000Y-134330000D02*
X212305000Y-134330000D01*
X212305000Y-129830000D02*
X218305000Y-129830000D01*
X206625000Y-144125000D02*
X203625000Y-144125000D01*
X203625000Y-141625000D02*
X206625000Y-141625000D01*
X211073480Y-137797540D02*
X209676480Y-137797540D01*
X215518480Y-137797540D02*
X217042480Y-137797540D01*
X215137480Y-138559540D02*
X215137480Y-137035540D01*
X215391480Y-138559540D02*
X215391480Y-137035540D01*
X215645480Y-137797540D02*
X215645480Y-137035540D01*
X215645480Y-137035540D02*
X211073480Y-137035540D01*
X211073480Y-137035540D02*
X211073480Y-138559540D01*
X211073480Y-138559540D02*
X215645480Y-138559540D01*
X215645480Y-138559540D02*
X215645480Y-137797540D01*
X225734880Y-128437640D02*
X225745040Y-132882640D01*
X225272600Y-128336040D02*
X225272600Y-137073640D01*
X225938080Y-128356360D02*
X225927920Y-137043160D01*
X225927920Y-137043160D02*
X225531680Y-137073640D01*
X225531680Y-137073640D02*
X225516440Y-128381760D01*
X225516440Y-128381760D02*
X225806000Y-128366520D01*
X225806000Y-128366520D02*
X225790760Y-136997440D01*
X225790760Y-136997440D02*
X225638360Y-136982200D01*
X225638360Y-136982200D02*
X225638360Y-128442720D01*
X225425000Y-128270000D02*
X225425000Y-137160000D01*
X221615000Y-137160000D02*
X226060000Y-137160000D01*
X226060000Y-137160000D02*
X226060000Y-128270000D01*
X226060000Y-128270000D02*
X221615000Y-128270000D01*
X221615000Y-128270000D02*
X221615000Y-137160000D01*
X217637360Y-144454880D02*
X213192360Y-144465040D01*
X217738960Y-143992600D02*
X209001360Y-143992600D01*
X217718640Y-144658080D02*
X209031840Y-144647920D01*
X209031840Y-144647920D02*
X209001360Y-144251680D01*
X209001360Y-144251680D02*
X217693240Y-144236440D01*
X217693240Y-144236440D02*
X217708480Y-144526000D01*
X217708480Y-144526000D02*
X209077560Y-144510760D01*
X209077560Y-144510760D02*
X209092800Y-144358360D01*
X209092800Y-144358360D02*
X217632280Y-144358360D01*
X217805000Y-144145000D02*
X208915000Y-144145000D01*
X208915000Y-140335000D02*
X208915000Y-144780000D01*
X208915000Y-144780000D02*
X217805000Y-144780000D01*
X217805000Y-144780000D02*
X217805000Y-140335000D01*
X217805000Y-140335000D02*
X208915000Y-140335000D01*
X209669380Y-127739140D02*
X209669380Y-128765300D01*
X210220560Y-128264920D02*
X209169000Y-128264920D01*
X210375500Y-132080000D02*
G75*
G03X210375500Y-132080000I-4000500J0D01*
G01*
X224850000Y-123825000D02*
X224600000Y-123825000D01*
X232350000Y-123825000D02*
X232600000Y-123825000D01*
X231100000Y-124575000D02*
X231100000Y-123075000D01*
X231100000Y-123075000D02*
X226100000Y-123075000D01*
X226100000Y-123075000D02*
X226100000Y-124575000D01*
X226100000Y-124575000D02*
X231100000Y-124575000D01*
X226060000Y-123825000D02*
X224790000Y-123825000D01*
X231140000Y-123825000D02*
X232410000Y-123825000D01*
X197700900Y-133990080D02*
X197700900Y-134589520D01*
X197401180Y-134289800D02*
X198000620Y-134289800D01*
X201000360Y-135890000D02*
G75*
G03X201000360Y-135890000I-2499360J0D01*
G01*
X196600000Y-129560000D02*
X199600000Y-129560000D01*
X199600000Y-132060000D02*
X196600000Y-132060000D01*
X189865000Y-131445000D02*
X189865000Y-139065000D01*
X192405000Y-131445000D02*
X192405000Y-139065000D01*
X192685000Y-128625000D02*
X192685000Y-130175000D01*
X189865000Y-139065000D02*
X192405000Y-139065000D01*
X192405000Y-131445000D02*
X189865000Y-131445000D01*
X189585000Y-130175000D02*
X189585000Y-128625000D01*
X189585000Y-128625000D02*
X192685000Y-128625000D01*
X208280000Y-122555000D02*
X200660000Y-122555000D01*
X208280000Y-125095000D02*
X200660000Y-125095000D01*
X211100000Y-125375000D02*
X209550000Y-125375000D01*
X200660000Y-122555000D02*
X200660000Y-125095000D01*
X208280000Y-125095000D02*
X208280000Y-122555000D01*
X209550000Y-122275000D02*
X211100000Y-122275000D01*
X211100000Y-122275000D02*
X211100000Y-125375000D01*
X192572640Y-140660120D02*
X197017640Y-140649960D01*
X192471040Y-141122400D02*
X201208640Y-141122400D01*
X192491360Y-140456920D02*
X201178160Y-140467080D01*
X201178160Y-140467080D02*
X201208640Y-140863320D01*
X201208640Y-140863320D02*
X192516760Y-140878560D01*
X192516760Y-140878560D02*
X192501520Y-140589000D01*
X192501520Y-140589000D02*
X201132440Y-140604240D01*
X201132440Y-140604240D02*
X201117200Y-140756640D01*
X201117200Y-140756640D02*
X192577720Y-140756640D01*
X192405000Y-140970000D02*
X201295000Y-140970000D01*
X201295000Y-144780000D02*
X201295000Y-140335000D01*
X201295000Y-140335000D02*
X192405000Y-140335000D01*
X192405000Y-140335000D02*
X192405000Y-144780000D01*
X192405000Y-144780000D02*
X201295000Y-144780000D01*
X236521667Y-126452381D02*
X236521667Y-127166667D01*
X236474047Y-127309524D01*
X236378809Y-127404762D01*
X236235952Y-127452381D01*
X236140714Y-127452381D01*
X237521667Y-127452381D02*
X236950238Y-127452381D01*
X237235952Y-127452381D02*
X237235952Y-126452381D01*
X237140714Y-126595238D01*
X237045476Y-126690476D01*
X236950238Y-126738095D01*
X215717381Y-125579047D02*
X215717381Y-126055238D01*
X214717381Y-126055238D01*
X215193571Y-125245714D02*
X215193571Y-124912380D01*
X215717381Y-124769523D02*
X215717381Y-125245714D01*
X214717381Y-125245714D01*
X214717381Y-124769523D01*
X215717381Y-124340952D02*
X214717381Y-124340952D01*
X214717381Y-124102857D01*
X214765000Y-123959999D01*
X214860238Y-123864761D01*
X214955476Y-123817142D01*
X215145952Y-123769523D01*
X215288810Y-123769523D01*
X215479286Y-123817142D01*
X215574524Y-123864761D01*
X215669762Y-123959999D01*
X215717381Y-124102857D01*
X215717381Y-124340952D01*
X215717381Y-122817142D02*
X215717381Y-123388571D01*
X215717381Y-123102857D02*
X214717381Y-123102857D01*
X214860238Y-123198095D01*
X214955476Y-123293333D01*
X215003095Y-123388571D01*
X229171667Y-144549762D02*
X229314524Y-144597381D01*
X229552620Y-144597381D01*
X229647858Y-144549762D01*
X229695477Y-144502143D01*
X229743096Y-144406905D01*
X229743096Y-144311667D01*
X229695477Y-144216429D01*
X229647858Y-144168810D01*
X229552620Y-144121190D01*
X229362143Y-144073571D01*
X229266905Y-144025952D01*
X229219286Y-143978333D01*
X229171667Y-143883095D01*
X229171667Y-143787857D01*
X229219286Y-143692619D01*
X229266905Y-143645000D01*
X229362143Y-143597381D01*
X229600239Y-143597381D01*
X229743096Y-143645000D01*
X230076429Y-143597381D02*
X230314524Y-144597381D01*
X230505001Y-143883095D01*
X230695477Y-144597381D01*
X230933572Y-143597381D01*
X231219286Y-143597381D02*
X231838334Y-143597381D01*
X231505000Y-143978333D01*
X231647858Y-143978333D01*
X231743096Y-144025952D01*
X231790715Y-144073571D01*
X231838334Y-144168810D01*
X231838334Y-144406905D01*
X231790715Y-144502143D01*
X231743096Y-144549762D01*
X231647858Y-144597381D01*
X231362143Y-144597381D01*
X231266905Y-144549762D01*
X231219286Y-144502143D01*
X215098334Y-129262143D02*
X215050715Y-129309762D01*
X214907858Y-129357381D01*
X214812620Y-129357381D01*
X214669762Y-129309762D01*
X214574524Y-129214524D01*
X214526905Y-129119286D01*
X214479286Y-128928810D01*
X214479286Y-128785952D01*
X214526905Y-128595476D01*
X214574524Y-128500238D01*
X214669762Y-128405000D01*
X214812620Y-128357381D01*
X214907858Y-128357381D01*
X215050715Y-128405000D01*
X215098334Y-128452619D01*
X215479286Y-128452619D02*
X215526905Y-128405000D01*
X215622143Y-128357381D01*
X215860239Y-128357381D01*
X215955477Y-128405000D01*
X216003096Y-128452619D01*
X216050715Y-128547857D01*
X216050715Y-128643095D01*
X216003096Y-128785952D01*
X215431667Y-129357381D01*
X216050715Y-129357381D01*
X204938334Y-141327143D02*
X204890715Y-141374762D01*
X204747858Y-141422381D01*
X204652620Y-141422381D01*
X204509762Y-141374762D01*
X204414524Y-141279524D01*
X204366905Y-141184286D01*
X204319286Y-140993810D01*
X204319286Y-140850952D01*
X204366905Y-140660476D01*
X204414524Y-140565238D01*
X204509762Y-140470000D01*
X204652620Y-140422381D01*
X204747858Y-140422381D01*
X204890715Y-140470000D01*
X204938334Y-140517619D01*
X205795477Y-140755714D02*
X205795477Y-141422381D01*
X205557381Y-140374762D02*
X205319286Y-141089048D01*
X205938334Y-141089048D01*
X212621905Y-136342381D02*
X212621905Y-135342381D01*
X212860000Y-135342381D01*
X213002858Y-135390000D01*
X213098096Y-135485238D01*
X213145715Y-135580476D01*
X213193334Y-135770952D01*
X213193334Y-135913810D01*
X213145715Y-136104286D01*
X213098096Y-136199524D01*
X213002858Y-136294762D01*
X212860000Y-136342381D01*
X212621905Y-136342381D01*
X213574286Y-135437619D02*
X213621905Y-135390000D01*
X213717143Y-135342381D01*
X213955239Y-135342381D01*
X214050477Y-135390000D01*
X214098096Y-135437619D01*
X214145715Y-135532857D01*
X214145715Y-135628095D01*
X214098096Y-135770952D01*
X213526667Y-136342381D01*
X214145715Y-136342381D01*
X221527619Y-132175238D02*
X221480000Y-132270476D01*
X221384762Y-132365714D01*
X221241905Y-132508571D01*
X221194286Y-132603810D01*
X221194286Y-132699048D01*
X221432381Y-132651429D02*
X221384762Y-132746667D01*
X221289524Y-132841905D01*
X221099048Y-132889524D01*
X220765714Y-132889524D01*
X220575238Y-132841905D01*
X220480000Y-132746667D01*
X220432381Y-132651429D01*
X220432381Y-132460952D01*
X220480000Y-132365714D01*
X220575238Y-132270476D01*
X220765714Y-132222857D01*
X221099048Y-132222857D01*
X221289524Y-132270476D01*
X221384762Y-132365714D01*
X221432381Y-132460952D01*
X221432381Y-132651429D01*
X221432381Y-131270476D02*
X221432381Y-131841905D01*
X221432381Y-131556191D02*
X220432381Y-131556191D01*
X220575238Y-131651429D01*
X220670476Y-131746667D01*
X220718095Y-131841905D01*
X211963095Y-139152381D02*
X211963095Y-139961905D01*
X212010714Y-140057143D01*
X212058333Y-140104762D01*
X212153571Y-140152381D01*
X212344048Y-140152381D01*
X212439286Y-140104762D01*
X212486905Y-140057143D01*
X212534524Y-139961905D01*
X212534524Y-139152381D01*
X212963095Y-139247619D02*
X213010714Y-139200000D01*
X213105952Y-139152381D01*
X213344048Y-139152381D01*
X213439286Y-139200000D01*
X213486905Y-139247619D01*
X213534524Y-139342857D01*
X213534524Y-139438095D01*
X213486905Y-139580952D01*
X212915476Y-140152381D01*
X213534524Y-140152381D01*
X202287143Y-130341666D02*
X202334762Y-130389285D01*
X202382381Y-130532142D01*
X202382381Y-130627380D01*
X202334762Y-130770238D01*
X202239524Y-130865476D01*
X202144286Y-130913095D01*
X201953810Y-130960714D01*
X201810952Y-130960714D01*
X201620476Y-130913095D01*
X201525238Y-130865476D01*
X201430000Y-130770238D01*
X201382381Y-130627380D01*
X201382381Y-130532142D01*
X201430000Y-130389285D01*
X201477619Y-130341666D01*
X201382381Y-129436904D02*
X201382381Y-129913095D01*
X201858571Y-129960714D01*
X201810952Y-129913095D01*
X201763333Y-129817857D01*
X201763333Y-129579761D01*
X201810952Y-129484523D01*
X201858571Y-129436904D01*
X201953810Y-129389285D01*
X202191905Y-129389285D01*
X202287143Y-129436904D01*
X202334762Y-129484523D01*
X202382381Y-129579761D01*
X202382381Y-129817857D01*
X202334762Y-129913095D01*
X202287143Y-129960714D01*
X228179334Y-122626381D02*
X227846000Y-122150190D01*
X227607905Y-122626381D02*
X227607905Y-121626381D01*
X227988858Y-121626381D01*
X228084096Y-121674000D01*
X228131715Y-121721619D01*
X228179334Y-121816857D01*
X228179334Y-121959714D01*
X228131715Y-122054952D01*
X228084096Y-122102571D01*
X227988858Y-122150190D01*
X227607905Y-122150190D01*
X228655524Y-122626381D02*
X228846000Y-122626381D01*
X228941239Y-122578762D01*
X228988858Y-122531143D01*
X229084096Y-122388286D01*
X229131715Y-122197810D01*
X229131715Y-121816857D01*
X229084096Y-121721619D01*
X229036477Y-121674000D01*
X228941239Y-121626381D01*
X228750762Y-121626381D01*
X228655524Y-121674000D01*
X228607905Y-121721619D01*
X228560286Y-121816857D01*
X228560286Y-122054952D01*
X228607905Y-122150190D01*
X228655524Y-122197810D01*
X228750762Y-122245429D01*
X228941239Y-122245429D01*
X229036477Y-122197810D01*
X229084096Y-122150190D01*
X229131715Y-122054952D01*
X200493334Y-133707143D02*
X200445715Y-133754762D01*
X200302858Y-133802381D01*
X200207620Y-133802381D01*
X200064762Y-133754762D01*
X199969524Y-133659524D01*
X199921905Y-133564286D01*
X199874286Y-133373810D01*
X199874286Y-133230952D01*
X199921905Y-133040476D01*
X199969524Y-132945238D01*
X200064762Y-132850000D01*
X200207620Y-132802381D01*
X200302858Y-132802381D01*
X200445715Y-132850000D01*
X200493334Y-132897619D01*
X201445715Y-133802381D02*
X200874286Y-133802381D01*
X201160000Y-133802381D02*
X201160000Y-132802381D01*
X201064762Y-132945238D01*
X200969524Y-133040476D01*
X200874286Y-133088095D01*
X197953334Y-129262143D02*
X197905715Y-129309762D01*
X197762858Y-129357381D01*
X197667620Y-129357381D01*
X197524762Y-129309762D01*
X197429524Y-129214524D01*
X197381905Y-129119286D01*
X197334286Y-128928810D01*
X197334286Y-128785952D01*
X197381905Y-128595476D01*
X197429524Y-128500238D01*
X197524762Y-128405000D01*
X197667620Y-128357381D01*
X197762858Y-128357381D01*
X197905715Y-128405000D01*
X197953334Y-128452619D01*
X198286667Y-128357381D02*
X198905715Y-128357381D01*
X198572381Y-128738333D01*
X198715239Y-128738333D01*
X198810477Y-128785952D01*
X198858096Y-128833571D01*
X198905715Y-128928810D01*
X198905715Y-129166905D01*
X198858096Y-129262143D01*
X198810477Y-129309762D01*
X198715239Y-129357381D01*
X198429524Y-129357381D01*
X198334286Y-129309762D01*
X198286667Y-129262143D01*
X189761905Y-140787381D02*
X189761905Y-139787381D01*
X190142858Y-139787381D01*
X190238096Y-139835000D01*
X190285715Y-139882619D01*
X190333334Y-139977857D01*
X190333334Y-140120714D01*
X190285715Y-140215952D01*
X190238096Y-140263571D01*
X190142858Y-140311190D01*
X189761905Y-140311190D01*
X191285715Y-140787381D02*
X190714286Y-140787381D01*
X191000000Y-140787381D02*
X191000000Y-139787381D01*
X190904762Y-139930238D01*
X190809524Y-140025476D01*
X190714286Y-140073095D01*
X199842381Y-124563095D02*
X198842381Y-124563095D01*
X198842381Y-124182142D01*
X198890000Y-124086904D01*
X198937619Y-124039285D01*
X199032857Y-123991666D01*
X199175714Y-123991666D01*
X199270952Y-124039285D01*
X199318571Y-124086904D01*
X199366190Y-124182142D01*
X199366190Y-124563095D01*
X198937619Y-123610714D02*
X198890000Y-123563095D01*
X198842381Y-123467857D01*
X198842381Y-123229761D01*
X198890000Y-123134523D01*
X198937619Y-123086904D01*
X199032857Y-123039285D01*
X199128095Y-123039285D01*
X199270952Y-123086904D01*
X199842381Y-123658333D01*
X199842381Y-123039285D01*
X196088095Y-139152381D02*
X196088095Y-139961905D01*
X196135714Y-140057143D01*
X196183333Y-140104762D01*
X196278571Y-140152381D01*
X196469048Y-140152381D01*
X196564286Y-140104762D01*
X196611905Y-140057143D01*
X196659524Y-139961905D01*
X196659524Y-139152381D01*
X197659524Y-140152381D02*
X197088095Y-140152381D01*
X197373809Y-140152381D02*
X197373809Y-139152381D01*
X197278571Y-139295238D01*
X197183333Y-139390476D01*
X197088095Y-139438095D01*
M02*
