G04 #@! TF.FileFunction,Copper,L1,Top,Signal*
%FSLAX46Y46*%
G04 Gerber Fmt 4.6, Leading zero omitted, Abs format (unit mm)*
G04 Created by KiCad (PCBNEW (2015-08-16 BZR 6097, Git b384c94)-product) date 11/6/2015 8:34:41 PM*
%MOMM*%
G01*
G04 APERTURE LIST*
%ADD10C,0.100000*%
%ADD11C,0.150000*%
%ADD12C,5.000000*%
%ADD13C,4.500000*%
%ADD14C,4.000000*%
%ADD15R,1.900000X2.000000*%
%ADD16C,1.900000*%
%ADD17C,1.300000*%
%ADD18C,1.800000*%
%ADD19R,1.400000X1.400000*%
%ADD20C,1.400000*%
%ADD21R,1.300000X1.300000*%
%ADD22C,1.699260*%
%ADD23R,1.699260X1.699260*%
%ADD24O,2.500000X1.600000*%
%ADD25O,1.600000X2.500000*%
%ADD26C,1.501140*%
%ADD27C,1.480820*%
%ADD28R,2.032000X1.727200*%
%ADD29O,2.032000X1.727200*%
%ADD30R,1.727200X2.032000*%
%ADD31O,1.727200X2.032000*%
%ADD32C,1.270000*%
%ADD33C,0.254000*%
G04 APERTURE END LIST*
D10*
D11*
X210185000Y-128270000D02*
X209169000Y-128270000D01*
X209677000Y-127762000D02*
X209677000Y-128778000D01*
X197700900Y-134289800D02*
X197700900Y-134589520D01*
X197700900Y-134289800D02*
X198000620Y-134289800D01*
X197401180Y-134289800D02*
X197700900Y-134289800D01*
X197700900Y-134289800D02*
X197700900Y-133990080D01*
D12*
X192405000Y-125095000D03*
X234950000Y-142240000D03*
D13*
X229870000Y-132715000D03*
D14*
X235870000Y-132715000D03*
X232870000Y-128015000D03*
D15*
X220345000Y-125095000D03*
D16*
X217805000Y-125095000D03*
D17*
X221865000Y-142875000D03*
X225865000Y-142875000D03*
D18*
X219765000Y-142875000D03*
X227965000Y-142875000D03*
D17*
X223865000Y-142875000D03*
D19*
X217805000Y-132080000D03*
D20*
X212805000Y-132080000D03*
D21*
X206375000Y-142875000D03*
D17*
X203875000Y-142875000D03*
D22*
X208279480Y-137797540D03*
D23*
X218439480Y-137797540D03*
D24*
X223520000Y-132715000D03*
X223520000Y-130175000D03*
X223520000Y-135255000D03*
D25*
X213360000Y-142240000D03*
X215900000Y-142240000D03*
X210820000Y-142240000D03*
D26*
X206375000Y-133985000D03*
X206375000Y-130175000D03*
D20*
X223520000Y-123825000D03*
X233680000Y-123825000D03*
D27*
X197500240Y-135890000D03*
X199501760Y-135890000D03*
D21*
X196850000Y-130810000D03*
D17*
X199350000Y-130810000D03*
D28*
X191135000Y-130175000D03*
D29*
X191135000Y-132715000D03*
X191135000Y-135255000D03*
X191135000Y-137795000D03*
D30*
X209550000Y-123825000D03*
D31*
X207010000Y-123825000D03*
X204470000Y-123825000D03*
X201930000Y-123825000D03*
D25*
X196850000Y-142875000D03*
X194310000Y-142875000D03*
X199390000Y-142875000D03*
D32*
X217805000Y-132080000D02*
X217805000Y-134620000D01*
X218439480Y-135254480D02*
X218439480Y-137797540D01*
X217805000Y-134620000D02*
X218439480Y-135254480D01*
X223520000Y-135255000D02*
X222885000Y-135255000D01*
X222885000Y-135255000D02*
X219710000Y-132080000D01*
X219710000Y-132080000D02*
X217805000Y-132080000D01*
X215900000Y-142240000D02*
X215900000Y-141605000D01*
X215900000Y-141605000D02*
X218439480Y-139065520D01*
X218439480Y-139065520D02*
X218439480Y-137797540D01*
X221865000Y-142875000D02*
X221865000Y-140720000D01*
X225425000Y-132715000D02*
X223520000Y-132715000D01*
X226060000Y-133350000D02*
X225425000Y-132715000D01*
X226060000Y-136525000D02*
X226060000Y-133350000D01*
X221865000Y-140720000D02*
X226060000Y-136525000D01*
X220345000Y-125095000D02*
X222885000Y-125095000D01*
X222885000Y-125095000D02*
X223520000Y-124460000D01*
X223520000Y-124460000D02*
X223520000Y-123825000D01*
X229870000Y-132715000D02*
X229870000Y-135890000D01*
X223865000Y-141895000D02*
X223865000Y-142875000D01*
X229870000Y-135890000D02*
X223865000Y-141895000D01*
X196850000Y-142875000D02*
X196850000Y-138430000D01*
X197500240Y-137779760D02*
X197500240Y-135890000D01*
X196850000Y-138430000D02*
X197500240Y-137779760D01*
X197500240Y-135890000D02*
X197500240Y-133365240D01*
X196850000Y-132715000D02*
X196850000Y-130810000D01*
X197500240Y-133365240D02*
X196850000Y-132715000D01*
X196850000Y-130810000D02*
X195580000Y-130810000D01*
X195580000Y-130810000D02*
X194310000Y-132080000D01*
X194310000Y-132080000D02*
X194310000Y-133985000D01*
X194310000Y-133985000D02*
X193040000Y-135255000D01*
X193040000Y-135255000D02*
X191135000Y-135255000D01*
X196865240Y-130825240D02*
X196850000Y-130810000D01*
X206375000Y-130175000D02*
X205105000Y-130175000D01*
X199390000Y-140970000D02*
X199390000Y-142875000D01*
X201930000Y-138430000D02*
X199390000Y-140970000D01*
X201930000Y-133350000D02*
X201930000Y-138430000D01*
X205105000Y-130175000D02*
X201930000Y-133350000D01*
X206375000Y-130175000D02*
X203835000Y-130175000D01*
X193040000Y-130175000D02*
X191135000Y-130175000D01*
X195580000Y-127635000D02*
X193040000Y-130175000D01*
X201295000Y-127635000D02*
X195580000Y-127635000D01*
X203835000Y-130175000D02*
X201295000Y-127635000D01*
X209550000Y-123825000D02*
X212725000Y-123825000D01*
X213995000Y-125095000D02*
X217805000Y-125095000D01*
X212725000Y-123825000D02*
X213995000Y-125095000D01*
X206375000Y-130175000D02*
X206375000Y-128270000D01*
X209550000Y-126365000D02*
X209550000Y-123825000D01*
X208915000Y-127000000D02*
X209550000Y-126365000D01*
X207645000Y-127000000D02*
X208915000Y-127000000D01*
X206375000Y-128270000D02*
X207645000Y-127000000D01*
X208279480Y-137797540D02*
X209550000Y-136527020D01*
X208280000Y-130175000D02*
X206375000Y-130175000D01*
X209550000Y-131445000D02*
X208280000Y-130175000D01*
X209550000Y-136527020D02*
X209550000Y-131445000D01*
X206375000Y-142875000D02*
X206375000Y-139702020D01*
X206375000Y-139702020D02*
X208279480Y-137797540D01*
X210820000Y-142240000D02*
X208280000Y-142240000D01*
X207645000Y-142875000D02*
X206375000Y-142875000D01*
X208280000Y-142240000D02*
X207645000Y-142875000D01*
D33*
G36*
X238075000Y-131216090D02*
X237745022Y-131019584D01*
X236049605Y-132715000D01*
X237745022Y-134410416D01*
X238075000Y-134213910D01*
X238075000Y-141593630D01*
X237609273Y-140466485D01*
X236728153Y-139583826D01*
X235576326Y-139105546D01*
X234329146Y-139104457D01*
X233176485Y-139580727D01*
X232293826Y-140461847D01*
X231815546Y-141613674D01*
X231814457Y-142860854D01*
X232290727Y-144013515D01*
X233171847Y-144896174D01*
X234300906Y-145365000D01*
X189280000Y-145365000D01*
X189280000Y-143002000D01*
X192875000Y-143002000D01*
X192875000Y-143452000D01*
X193032834Y-143991483D01*
X193385104Y-144429500D01*
X193878181Y-144699367D01*
X193960961Y-144716904D01*
X194183000Y-144594915D01*
X194183000Y-143002000D01*
X192875000Y-143002000D01*
X189280000Y-143002000D01*
X189280000Y-142298000D01*
X192875000Y-142298000D01*
X192875000Y-142748000D01*
X194183000Y-142748000D01*
X194183000Y-141155085D01*
X193960961Y-141033096D01*
X193878181Y-141050633D01*
X193385104Y-141320500D01*
X193032834Y-141758517D01*
X192875000Y-142298000D01*
X189280000Y-142298000D01*
X189280000Y-138154026D01*
X189527642Y-138154026D01*
X189530291Y-138169791D01*
X189784268Y-138697036D01*
X190220680Y-139086954D01*
X190773087Y-139280184D01*
X191008000Y-139135924D01*
X191008000Y-137922000D01*
X191262000Y-137922000D01*
X191262000Y-139135924D01*
X191496913Y-139280184D01*
X192049320Y-139086954D01*
X192485732Y-138697036D01*
X192739709Y-138169791D01*
X192742358Y-138154026D01*
X192621217Y-137922000D01*
X191262000Y-137922000D01*
X191008000Y-137922000D01*
X189648783Y-137922000D01*
X189527642Y-138154026D01*
X189280000Y-138154026D01*
X189280000Y-125741370D01*
X189745727Y-126868515D01*
X190626847Y-127751174D01*
X191778674Y-128229454D01*
X193025854Y-128230543D01*
X193302863Y-128116085D01*
X192581762Y-128837187D01*
X192402890Y-128714969D01*
X192151000Y-128663960D01*
X190119000Y-128663960D01*
X189883683Y-128708238D01*
X189667559Y-128847310D01*
X189522569Y-129059510D01*
X189471560Y-129311400D01*
X189471560Y-131038600D01*
X189515838Y-131273917D01*
X189654910Y-131490041D01*
X189867110Y-131635031D01*
X189961927Y-131654232D01*
X189784268Y-131812964D01*
X189530291Y-132340209D01*
X189527642Y-132355974D01*
X189648783Y-132588000D01*
X191008000Y-132588000D01*
X191008000Y-132568000D01*
X191262000Y-132568000D01*
X191262000Y-132588000D01*
X192621217Y-132588000D01*
X192742358Y-132355974D01*
X192739709Y-132340209D01*
X192485732Y-131812964D01*
X192310155Y-131656093D01*
X192386317Y-131641762D01*
X192602441Y-131502690D01*
X192641859Y-131445000D01*
X193039995Y-131445000D01*
X193040000Y-131445001D01*
X193266303Y-131399986D01*
X193136673Y-131593992D01*
X193039999Y-132080000D01*
X193040000Y-132080005D01*
X193040000Y-133458949D01*
X192513948Y-133985000D01*
X192073892Y-133985000D01*
X192485732Y-133617036D01*
X192739709Y-133089791D01*
X192742358Y-133074026D01*
X192621217Y-132842000D01*
X191262000Y-132842000D01*
X191262000Y-132862000D01*
X191008000Y-132862000D01*
X191008000Y-132842000D01*
X189648783Y-132842000D01*
X189527642Y-133074026D01*
X189530291Y-133089791D01*
X189784268Y-133617036D01*
X190200069Y-133988539D01*
X189890585Y-134195330D01*
X189565729Y-134681511D01*
X189451655Y-135255000D01*
X189565729Y-135828489D01*
X189890585Y-136314670D01*
X190200069Y-136521461D01*
X189784268Y-136892964D01*
X189530291Y-137420209D01*
X189527642Y-137435974D01*
X189648783Y-137668000D01*
X191008000Y-137668000D01*
X191008000Y-137648000D01*
X191262000Y-137648000D01*
X191262000Y-137668000D01*
X192621217Y-137668000D01*
X192742358Y-137435974D01*
X192739709Y-137420209D01*
X192485732Y-136892964D01*
X192073892Y-136525000D01*
X193039995Y-136525000D01*
X193040000Y-136525001D01*
X193526008Y-136428327D01*
X193938026Y-136153026D01*
X195208023Y-134883028D01*
X195208026Y-134883026D01*
X195483327Y-134471008D01*
X195580000Y-133985000D01*
X195580000Y-132715005D01*
X195676673Y-133201008D01*
X195951974Y-133613026D01*
X196230240Y-133891292D01*
X196230240Y-135361935D01*
X196125069Y-135615214D01*
X196124592Y-136162386D01*
X196230240Y-136418074D01*
X196230240Y-137253708D01*
X195951974Y-137531974D01*
X195676673Y-137943992D01*
X195579999Y-138430000D01*
X195580000Y-138430005D01*
X195580000Y-141749607D01*
X195234896Y-141320500D01*
X194741819Y-141050633D01*
X194659039Y-141033096D01*
X194437000Y-141155085D01*
X194437000Y-142748000D01*
X194457000Y-142748000D01*
X194457000Y-143002000D01*
X194437000Y-143002000D01*
X194437000Y-144594915D01*
X194659039Y-144716904D01*
X194741819Y-144699367D01*
X195234896Y-144429500D01*
X195582136Y-143997738D01*
X195835302Y-144376627D01*
X196300849Y-144687696D01*
X196850000Y-144796929D01*
X197399151Y-144687696D01*
X197864698Y-144376627D01*
X198120000Y-143994541D01*
X198375302Y-144376627D01*
X198840849Y-144687696D01*
X199390000Y-144796929D01*
X199939151Y-144687696D01*
X200404698Y-144376627D01*
X200715767Y-143911080D01*
X200743030Y-143774016D01*
X203155590Y-143774016D01*
X203211271Y-144004611D01*
X203694078Y-144172622D01*
X204204428Y-144143083D01*
X204538729Y-144004611D01*
X204594410Y-143774016D01*
X203875000Y-143054605D01*
X203155590Y-143774016D01*
X200743030Y-143774016D01*
X200825000Y-143361929D01*
X200825000Y-142694078D01*
X202577378Y-142694078D01*
X202606917Y-143204428D01*
X202745389Y-143538729D01*
X202975984Y-143594410D01*
X203695395Y-142875000D01*
X202975984Y-142155590D01*
X202745389Y-142211271D01*
X202577378Y-142694078D01*
X200825000Y-142694078D01*
X200825000Y-142388071D01*
X200743031Y-141975984D01*
X203155590Y-141975984D01*
X203875000Y-142695395D01*
X204594410Y-141975984D01*
X204538729Y-141745389D01*
X204055922Y-141577378D01*
X203545572Y-141606917D01*
X203211271Y-141745389D01*
X203155590Y-141975984D01*
X200743031Y-141975984D01*
X200715767Y-141838920D01*
X200660000Y-141755459D01*
X200660000Y-141496052D01*
X202828023Y-139328028D01*
X202828026Y-139328026D01*
X203103327Y-138916008D01*
X203200000Y-138430000D01*
X203200000Y-134956930D01*
X205582675Y-134956930D01*
X205650735Y-135197931D01*
X206170034Y-135382767D01*
X206720538Y-135354805D01*
X207099265Y-135197931D01*
X207167325Y-134956930D01*
X206375000Y-134164605D01*
X205582675Y-134956930D01*
X203200000Y-134956930D01*
X203200000Y-133876052D01*
X203296018Y-133780034D01*
X204977233Y-133780034D01*
X205005195Y-134330538D01*
X205162069Y-134709265D01*
X205403070Y-134777325D01*
X206195395Y-133985000D01*
X206554605Y-133985000D01*
X207346930Y-134777325D01*
X207587931Y-134709265D01*
X207772767Y-134189966D01*
X207744805Y-133639462D01*
X207587931Y-133260735D01*
X207346930Y-133192675D01*
X206554605Y-133985000D01*
X206195395Y-133985000D01*
X205403070Y-133192675D01*
X205162069Y-133260735D01*
X204977233Y-133780034D01*
X203296018Y-133780034D01*
X204062982Y-133013070D01*
X205582675Y-133013070D01*
X206375000Y-133805395D01*
X207167325Y-133013070D01*
X207099265Y-132772069D01*
X206579966Y-132587233D01*
X206029462Y-132615195D01*
X205650735Y-132772069D01*
X205582675Y-133013070D01*
X204062982Y-133013070D01*
X205631052Y-131445000D01*
X205820441Y-131445000D01*
X206098184Y-131560329D01*
X206649398Y-131560810D01*
X206929679Y-131445000D01*
X207753948Y-131445000D01*
X208280000Y-131971051D01*
X208280000Y-136000969D01*
X207956242Y-136324726D01*
X207439603Y-136538198D01*
X207021606Y-136955466D01*
X206805811Y-137475158D01*
X205476974Y-138803994D01*
X205201673Y-139216012D01*
X205104999Y-139702020D01*
X205105000Y-139702025D01*
X205105000Y-142089497D01*
X205077560Y-142225000D01*
X205077560Y-142387385D01*
X205004611Y-142211271D01*
X204774016Y-142155590D01*
X204054605Y-142875000D01*
X204774016Y-143594410D01*
X205004611Y-143538729D01*
X205077560Y-143329098D01*
X205077560Y-143525000D01*
X205121838Y-143760317D01*
X205260910Y-143976441D01*
X205473110Y-144121431D01*
X205725000Y-144172440D01*
X207025000Y-144172440D01*
X207170831Y-144145000D01*
X207644995Y-144145000D01*
X207645000Y-144145001D01*
X208131008Y-144048327D01*
X208543026Y-143773026D01*
X208806052Y-143510000D01*
X209650534Y-143510000D01*
X209805302Y-143741627D01*
X210270849Y-144052696D01*
X210820000Y-144161929D01*
X211369151Y-144052696D01*
X211834698Y-143741627D01*
X212087864Y-143362738D01*
X212435104Y-143794500D01*
X212928181Y-144064367D01*
X213010961Y-144081904D01*
X213233000Y-143959915D01*
X213233000Y-142367000D01*
X213213000Y-142367000D01*
X213213000Y-142113000D01*
X213233000Y-142113000D01*
X213233000Y-140520085D01*
X213487000Y-140520085D01*
X213487000Y-142113000D01*
X213507000Y-142113000D01*
X213507000Y-142367000D01*
X213487000Y-142367000D01*
X213487000Y-143959915D01*
X213709039Y-144081904D01*
X213791819Y-144064367D01*
X214284896Y-143794500D01*
X214632136Y-143362738D01*
X214885302Y-143741627D01*
X215350849Y-144052696D01*
X215900000Y-144161929D01*
X216449151Y-144052696D01*
X216914698Y-143741627D01*
X217225767Y-143276080D01*
X217335000Y-142726929D01*
X217335000Y-141966052D01*
X219337506Y-139963546D01*
X219612807Y-139551528D01*
X219694486Y-139140902D01*
X219740551Y-139111260D01*
X219885541Y-138899060D01*
X219936550Y-138647170D01*
X219936550Y-136947910D01*
X219892272Y-136712593D01*
X219753200Y-136496469D01*
X219709480Y-136466596D01*
X219709480Y-135254480D01*
X219612807Y-134768472D01*
X219337506Y-134356454D01*
X219337503Y-134356452D01*
X219075000Y-134093949D01*
X219075000Y-133350000D01*
X219183948Y-133350000D01*
X221846661Y-136012713D01*
X222018373Y-136269698D01*
X222483920Y-136580767D01*
X223033071Y-136690000D01*
X224006929Y-136690000D01*
X224121797Y-136667151D01*
X220966974Y-139821974D01*
X220691673Y-140233992D01*
X220594999Y-140720000D01*
X220595000Y-140720005D01*
X220595000Y-141557573D01*
X220071670Y-141340267D01*
X219461009Y-141339735D01*
X218896629Y-141572932D01*
X218464449Y-142004357D01*
X218230267Y-142568330D01*
X218229735Y-143178991D01*
X218462932Y-143743371D01*
X218894357Y-144175551D01*
X219458330Y-144409733D01*
X220068991Y-144410265D01*
X220633371Y-144177068D01*
X220991869Y-143819196D01*
X221136155Y-143963735D01*
X221608276Y-144159777D01*
X222119481Y-144160223D01*
X222591943Y-143965005D01*
X222865160Y-143692266D01*
X223136155Y-143963735D01*
X223608276Y-144159777D01*
X224119481Y-144160223D01*
X224591943Y-143965005D01*
X224865160Y-143692266D01*
X225136155Y-143963735D01*
X225608276Y-144159777D01*
X226119481Y-144160223D01*
X226591943Y-143965005D01*
X226738316Y-143818887D01*
X227094357Y-144175551D01*
X227658330Y-144409733D01*
X228268991Y-144410265D01*
X228833371Y-144177068D01*
X229265551Y-143745643D01*
X229499733Y-143181670D01*
X229500265Y-142571009D01*
X229267068Y-142006629D01*
X228835643Y-141574449D01*
X228271670Y-141340267D01*
X227661009Y-141339735D01*
X227096629Y-141572932D01*
X226738131Y-141930804D01*
X226593845Y-141786265D01*
X226121724Y-141590223D01*
X225965965Y-141590087D01*
X230768023Y-136788028D01*
X230768026Y-136788026D01*
X231043327Y-136376008D01*
X231140000Y-135890000D01*
X231140000Y-135311821D01*
X231502086Y-135162210D01*
X232075273Y-134590022D01*
X234174584Y-134590022D01*
X234395353Y-134960743D01*
X235367012Y-135354119D01*
X236415247Y-135345713D01*
X237344647Y-134960743D01*
X237565416Y-134590022D01*
X235870000Y-132894605D01*
X234174584Y-134590022D01*
X232075273Y-134590022D01*
X232314357Y-134351355D01*
X232754498Y-133291380D01*
X232755439Y-132212012D01*
X233230881Y-132212012D01*
X233239287Y-133260247D01*
X233624257Y-134189647D01*
X233994978Y-134410416D01*
X235690395Y-132715000D01*
X233994978Y-131019584D01*
X233624257Y-131240353D01*
X233230881Y-132212012D01*
X232755439Y-132212012D01*
X232755499Y-132143656D01*
X232317210Y-131082914D01*
X232074698Y-130839978D01*
X234174584Y-130839978D01*
X235870000Y-132535395D01*
X237565416Y-130839978D01*
X237344647Y-130469257D01*
X236372988Y-130075881D01*
X235324753Y-130084287D01*
X234395353Y-130469257D01*
X234174584Y-130839978D01*
X232074698Y-130839978D01*
X231559651Y-130324032D01*
X232343567Y-130649542D01*
X233391834Y-130650457D01*
X234360658Y-130250147D01*
X235102542Y-129509557D01*
X235504542Y-128541433D01*
X235505457Y-127493166D01*
X235105147Y-126524342D01*
X234364557Y-125782458D01*
X233396433Y-125380458D01*
X232348166Y-125379543D01*
X231379342Y-125779853D01*
X230637458Y-126520443D01*
X230235458Y-127488567D01*
X230234543Y-128536834D01*
X230634853Y-129505658D01*
X231322147Y-130194153D01*
X230446380Y-129830502D01*
X229298656Y-129829501D01*
X228237914Y-130267790D01*
X227425643Y-131078645D01*
X226985502Y-132138620D01*
X226985193Y-132492633D01*
X226958026Y-132451974D01*
X226958023Y-132451972D01*
X226323026Y-131816974D01*
X225911008Y-131541673D01*
X225425000Y-131444999D01*
X225424995Y-131445000D01*
X224645393Y-131445000D01*
X225074500Y-131099896D01*
X225344367Y-130606819D01*
X225361904Y-130524039D01*
X225239915Y-130302000D01*
X223647000Y-130302000D01*
X223647000Y-130322000D01*
X223393000Y-130322000D01*
X223393000Y-130302000D01*
X221800085Y-130302000D01*
X221678096Y-130524039D01*
X221695633Y-130606819D01*
X221965500Y-131099896D01*
X222397262Y-131447136D01*
X222018373Y-131700302D01*
X221707304Y-132165849D01*
X221688157Y-132262105D01*
X220608026Y-131181974D01*
X220196008Y-130906673D01*
X219710000Y-130809999D01*
X219709995Y-130810000D01*
X218795573Y-130810000D01*
X218756890Y-130783569D01*
X218505000Y-130732560D01*
X217105000Y-130732560D01*
X216869683Y-130776838D01*
X216653559Y-130915910D01*
X216508569Y-131128110D01*
X216457560Y-131380000D01*
X216457560Y-132780000D01*
X216501838Y-133015317D01*
X216535000Y-133066852D01*
X216535000Y-134619995D01*
X216534999Y-134620000D01*
X216631673Y-135106008D01*
X216906974Y-135518026D01*
X217169480Y-135780532D01*
X217169480Y-136463826D01*
X217138409Y-136483820D01*
X216993419Y-136696020D01*
X216942410Y-136947910D01*
X216942410Y-138647170D01*
X216961314Y-138747634D01*
X215142287Y-140566661D01*
X214885302Y-140738373D01*
X214632136Y-141117262D01*
X214284896Y-140685500D01*
X213791819Y-140415633D01*
X213709039Y-140398096D01*
X213487000Y-140520085D01*
X213233000Y-140520085D01*
X213010961Y-140398096D01*
X212928181Y-140415633D01*
X212435104Y-140685500D01*
X212087864Y-141117262D01*
X211834698Y-140738373D01*
X211369151Y-140427304D01*
X210820000Y-140318071D01*
X210270849Y-140427304D01*
X209805302Y-140738373D01*
X209650534Y-140970000D01*
X208280005Y-140970000D01*
X208280000Y-140969999D01*
X207815956Y-141062304D01*
X207793992Y-141066673D01*
X207645000Y-141166226D01*
X207645000Y-140228072D01*
X208602717Y-139270354D01*
X209119357Y-139056882D01*
X209537354Y-138639614D01*
X209753149Y-138119922D01*
X210448023Y-137425048D01*
X210448026Y-137425046D01*
X210723327Y-137013028D01*
X210745906Y-136899515D01*
X210820001Y-136527020D01*
X210820000Y-136527015D01*
X210820000Y-133015275D01*
X212049331Y-133015275D01*
X212111169Y-133251042D01*
X212612122Y-133427419D01*
X213142440Y-133398664D01*
X213498831Y-133251042D01*
X213560669Y-133015275D01*
X212805000Y-132259605D01*
X212049331Y-133015275D01*
X210820000Y-133015275D01*
X210820000Y-131887122D01*
X211457581Y-131887122D01*
X211486336Y-132417440D01*
X211633958Y-132773831D01*
X211869725Y-132835669D01*
X212625395Y-132080000D01*
X212984605Y-132080000D01*
X213740275Y-132835669D01*
X213976042Y-132773831D01*
X214152419Y-132272878D01*
X214123664Y-131742560D01*
X213976042Y-131386169D01*
X213740275Y-131324331D01*
X212984605Y-132080000D01*
X212625395Y-132080000D01*
X211869725Y-131324331D01*
X211633958Y-131386169D01*
X211457581Y-131887122D01*
X210820000Y-131887122D01*
X210820000Y-131445000D01*
X210760272Y-131144725D01*
X212049331Y-131144725D01*
X212805000Y-131900395D01*
X213560669Y-131144725D01*
X213498831Y-130908958D01*
X212997878Y-130732581D01*
X212467560Y-130761336D01*
X212111169Y-130908958D01*
X212049331Y-131144725D01*
X210760272Y-131144725D01*
X210723327Y-130958992D01*
X210448026Y-130546974D01*
X210448023Y-130546972D01*
X209727013Y-129825961D01*
X221678096Y-129825961D01*
X221800085Y-130048000D01*
X223393000Y-130048000D01*
X223393000Y-128740000D01*
X223647000Y-128740000D01*
X223647000Y-130048000D01*
X225239915Y-130048000D01*
X225361904Y-129825961D01*
X225344367Y-129743181D01*
X225074500Y-129250104D01*
X224636483Y-128897834D01*
X224097000Y-128740000D01*
X223647000Y-128740000D01*
X223393000Y-128740000D01*
X222943000Y-128740000D01*
X222403517Y-128897834D01*
X221965500Y-129250104D01*
X221695633Y-129743181D01*
X221678096Y-129825961D01*
X209727013Y-129825961D01*
X209193470Y-129292418D01*
X209405295Y-129433954D01*
X209677000Y-129488000D01*
X209948705Y-129433954D01*
X210179046Y-129280046D01*
X210332954Y-129049705D01*
X210353486Y-128946486D01*
X210456705Y-128925954D01*
X210687046Y-128772046D01*
X210840954Y-128541705D01*
X210895000Y-128270000D01*
X210840954Y-127998295D01*
X210687046Y-127767954D01*
X210456705Y-127614046D01*
X210353486Y-127593514D01*
X210332954Y-127490295D01*
X210288014Y-127423037D01*
X210448023Y-127263028D01*
X210448026Y-127263026D01*
X210723327Y-126851008D01*
X210757398Y-126679724D01*
X210820001Y-126365000D01*
X210820000Y-126364995D01*
X210820000Y-125334073D01*
X210865041Y-125305090D01*
X211008589Y-125095000D01*
X212198948Y-125095000D01*
X213096972Y-125993023D01*
X213096974Y-125993026D01*
X213508992Y-126268327D01*
X213995000Y-126365000D01*
X216833210Y-126365000D01*
X216905997Y-126437914D01*
X217488341Y-126679724D01*
X218118893Y-126680275D01*
X218701657Y-126439481D01*
X218799337Y-126341971D01*
X218930910Y-126546441D01*
X219143110Y-126691431D01*
X219395000Y-126742440D01*
X221295000Y-126742440D01*
X221530317Y-126698162D01*
X221746441Y-126559090D01*
X221879057Y-126365000D01*
X222884995Y-126365000D01*
X222885000Y-126365001D01*
X223371008Y-126268327D01*
X223783026Y-125993026D01*
X224418023Y-125358028D01*
X224418026Y-125358026D01*
X224693327Y-124946008D01*
X224730271Y-124760275D01*
X232924331Y-124760275D01*
X232986169Y-124996042D01*
X233487122Y-125172419D01*
X234017440Y-125143664D01*
X234373831Y-124996042D01*
X234435669Y-124760275D01*
X233680000Y-124004605D01*
X232924331Y-124760275D01*
X224730271Y-124760275D01*
X224790001Y-124460000D01*
X224790000Y-124459995D01*
X224790000Y-124247691D01*
X224854768Y-124091713D01*
X224855168Y-123632122D01*
X232332581Y-123632122D01*
X232361336Y-124162440D01*
X232508958Y-124518831D01*
X232744725Y-124580669D01*
X233500395Y-123825000D01*
X233859605Y-123825000D01*
X234615275Y-124580669D01*
X234851042Y-124518831D01*
X235027419Y-124017878D01*
X234998664Y-123487560D01*
X234851042Y-123131169D01*
X234615275Y-123069331D01*
X233859605Y-123825000D01*
X233500395Y-123825000D01*
X232744725Y-123069331D01*
X232508958Y-123131169D01*
X232332581Y-123632122D01*
X224855168Y-123632122D01*
X224855231Y-123560617D01*
X224652418Y-123069771D01*
X224472686Y-122889725D01*
X232924331Y-122889725D01*
X233680000Y-123645395D01*
X234435669Y-122889725D01*
X234373831Y-122653958D01*
X233872878Y-122477581D01*
X233342560Y-122506336D01*
X232986169Y-122653958D01*
X232924331Y-122889725D01*
X224472686Y-122889725D01*
X224277204Y-122693902D01*
X223786713Y-122490232D01*
X223255617Y-122489769D01*
X222764771Y-122692582D01*
X222388902Y-123067796D01*
X222185232Y-123558287D01*
X222184999Y-123825000D01*
X221875844Y-123825000D01*
X221759090Y-123643559D01*
X221546890Y-123498569D01*
X221295000Y-123447560D01*
X219395000Y-123447560D01*
X219159683Y-123491838D01*
X218943559Y-123630910D01*
X218798569Y-123843110D01*
X218797945Y-123846192D01*
X218704003Y-123752086D01*
X218121659Y-123510276D01*
X217491107Y-123509725D01*
X216908343Y-123750519D01*
X216833732Y-123825000D01*
X214521051Y-123825000D01*
X213623026Y-122926974D01*
X213211008Y-122651673D01*
X212725000Y-122554999D01*
X212724995Y-122555000D01*
X211004740Y-122555000D01*
X210877690Y-122357559D01*
X210665490Y-122212569D01*
X210413600Y-122161560D01*
X208686400Y-122161560D01*
X208451083Y-122205838D01*
X208234959Y-122344910D01*
X208089969Y-122557110D01*
X208070768Y-122651927D01*
X207912036Y-122474268D01*
X207384791Y-122220291D01*
X207369026Y-122217642D01*
X207137000Y-122338783D01*
X207137000Y-123698000D01*
X207157000Y-123698000D01*
X207157000Y-123952000D01*
X207137000Y-123952000D01*
X207137000Y-125311217D01*
X207369026Y-125432358D01*
X207384791Y-125429709D01*
X207912036Y-125175732D01*
X208068907Y-125000155D01*
X208083238Y-125076317D01*
X208222310Y-125292441D01*
X208280000Y-125331859D01*
X208280000Y-125730000D01*
X207645000Y-125730000D01*
X207158992Y-125826673D01*
X206746974Y-126101974D01*
X206746972Y-126101977D01*
X205476974Y-127371974D01*
X205201673Y-127783992D01*
X205104999Y-128270000D01*
X205105000Y-128270005D01*
X205105000Y-128904999D01*
X205104995Y-128905000D01*
X204361051Y-128905000D01*
X202193026Y-126736974D01*
X201781008Y-126461673D01*
X201295000Y-126364999D01*
X201294995Y-126365000D01*
X195580000Y-126365000D01*
X195244464Y-126431742D01*
X195539454Y-125721326D01*
X195540543Y-124474146D01*
X195421861Y-124186913D01*
X200444816Y-124186913D01*
X200638046Y-124739320D01*
X201027964Y-125175732D01*
X201555209Y-125429709D01*
X201570974Y-125432358D01*
X201803000Y-125311217D01*
X201803000Y-123952000D01*
X200589076Y-123952000D01*
X200444816Y-124186913D01*
X195421861Y-124186913D01*
X195122782Y-123463087D01*
X200444816Y-123463087D01*
X200589076Y-123698000D01*
X201803000Y-123698000D01*
X201803000Y-122338783D01*
X202057000Y-122338783D01*
X202057000Y-123698000D01*
X202077000Y-123698000D01*
X202077000Y-123952000D01*
X202057000Y-123952000D01*
X202057000Y-125311217D01*
X202289026Y-125432358D01*
X202304791Y-125429709D01*
X202832036Y-125175732D01*
X203203539Y-124759931D01*
X203410330Y-125069415D01*
X203896511Y-125394271D01*
X204470000Y-125508345D01*
X205043489Y-125394271D01*
X205529670Y-125069415D01*
X205736461Y-124759931D01*
X206107964Y-125175732D01*
X206635209Y-125429709D01*
X206650974Y-125432358D01*
X206883000Y-125311217D01*
X206883000Y-123952000D01*
X206863000Y-123952000D01*
X206863000Y-123698000D01*
X206883000Y-123698000D01*
X206883000Y-122338783D01*
X206650974Y-122217642D01*
X206635209Y-122220291D01*
X206107964Y-122474268D01*
X205736461Y-122890069D01*
X205529670Y-122580585D01*
X205043489Y-122255729D01*
X204470000Y-122141655D01*
X203896511Y-122255729D01*
X203410330Y-122580585D01*
X203203539Y-122890069D01*
X202832036Y-122474268D01*
X202304791Y-122220291D01*
X202289026Y-122217642D01*
X202057000Y-122338783D01*
X201803000Y-122338783D01*
X201570974Y-122217642D01*
X201555209Y-122220291D01*
X201027964Y-122474268D01*
X200638046Y-122910680D01*
X200444816Y-123463087D01*
X195122782Y-123463087D01*
X195064273Y-123321485D01*
X194183153Y-122438826D01*
X193054094Y-121970000D01*
X238075000Y-121970000D01*
X238075000Y-131216090D01*
X238075000Y-131216090D01*
G37*
X238075000Y-131216090D02*
X237745022Y-131019584D01*
X236049605Y-132715000D01*
X237745022Y-134410416D01*
X238075000Y-134213910D01*
X238075000Y-141593630D01*
X237609273Y-140466485D01*
X236728153Y-139583826D01*
X235576326Y-139105546D01*
X234329146Y-139104457D01*
X233176485Y-139580727D01*
X232293826Y-140461847D01*
X231815546Y-141613674D01*
X231814457Y-142860854D01*
X232290727Y-144013515D01*
X233171847Y-144896174D01*
X234300906Y-145365000D01*
X189280000Y-145365000D01*
X189280000Y-143002000D01*
X192875000Y-143002000D01*
X192875000Y-143452000D01*
X193032834Y-143991483D01*
X193385104Y-144429500D01*
X193878181Y-144699367D01*
X193960961Y-144716904D01*
X194183000Y-144594915D01*
X194183000Y-143002000D01*
X192875000Y-143002000D01*
X189280000Y-143002000D01*
X189280000Y-142298000D01*
X192875000Y-142298000D01*
X192875000Y-142748000D01*
X194183000Y-142748000D01*
X194183000Y-141155085D01*
X193960961Y-141033096D01*
X193878181Y-141050633D01*
X193385104Y-141320500D01*
X193032834Y-141758517D01*
X192875000Y-142298000D01*
X189280000Y-142298000D01*
X189280000Y-138154026D01*
X189527642Y-138154026D01*
X189530291Y-138169791D01*
X189784268Y-138697036D01*
X190220680Y-139086954D01*
X190773087Y-139280184D01*
X191008000Y-139135924D01*
X191008000Y-137922000D01*
X191262000Y-137922000D01*
X191262000Y-139135924D01*
X191496913Y-139280184D01*
X192049320Y-139086954D01*
X192485732Y-138697036D01*
X192739709Y-138169791D01*
X192742358Y-138154026D01*
X192621217Y-137922000D01*
X191262000Y-137922000D01*
X191008000Y-137922000D01*
X189648783Y-137922000D01*
X189527642Y-138154026D01*
X189280000Y-138154026D01*
X189280000Y-125741370D01*
X189745727Y-126868515D01*
X190626847Y-127751174D01*
X191778674Y-128229454D01*
X193025854Y-128230543D01*
X193302863Y-128116085D01*
X192581762Y-128837187D01*
X192402890Y-128714969D01*
X192151000Y-128663960D01*
X190119000Y-128663960D01*
X189883683Y-128708238D01*
X189667559Y-128847310D01*
X189522569Y-129059510D01*
X189471560Y-129311400D01*
X189471560Y-131038600D01*
X189515838Y-131273917D01*
X189654910Y-131490041D01*
X189867110Y-131635031D01*
X189961927Y-131654232D01*
X189784268Y-131812964D01*
X189530291Y-132340209D01*
X189527642Y-132355974D01*
X189648783Y-132588000D01*
X191008000Y-132588000D01*
X191008000Y-132568000D01*
X191262000Y-132568000D01*
X191262000Y-132588000D01*
X192621217Y-132588000D01*
X192742358Y-132355974D01*
X192739709Y-132340209D01*
X192485732Y-131812964D01*
X192310155Y-131656093D01*
X192386317Y-131641762D01*
X192602441Y-131502690D01*
X192641859Y-131445000D01*
X193039995Y-131445000D01*
X193040000Y-131445001D01*
X193266303Y-131399986D01*
X193136673Y-131593992D01*
X193039999Y-132080000D01*
X193040000Y-132080005D01*
X193040000Y-133458949D01*
X192513948Y-133985000D01*
X192073892Y-133985000D01*
X192485732Y-133617036D01*
X192739709Y-133089791D01*
X192742358Y-133074026D01*
X192621217Y-132842000D01*
X191262000Y-132842000D01*
X191262000Y-132862000D01*
X191008000Y-132862000D01*
X191008000Y-132842000D01*
X189648783Y-132842000D01*
X189527642Y-133074026D01*
X189530291Y-133089791D01*
X189784268Y-133617036D01*
X190200069Y-133988539D01*
X189890585Y-134195330D01*
X189565729Y-134681511D01*
X189451655Y-135255000D01*
X189565729Y-135828489D01*
X189890585Y-136314670D01*
X190200069Y-136521461D01*
X189784268Y-136892964D01*
X189530291Y-137420209D01*
X189527642Y-137435974D01*
X189648783Y-137668000D01*
X191008000Y-137668000D01*
X191008000Y-137648000D01*
X191262000Y-137648000D01*
X191262000Y-137668000D01*
X192621217Y-137668000D01*
X192742358Y-137435974D01*
X192739709Y-137420209D01*
X192485732Y-136892964D01*
X192073892Y-136525000D01*
X193039995Y-136525000D01*
X193040000Y-136525001D01*
X193526008Y-136428327D01*
X193938026Y-136153026D01*
X195208023Y-134883028D01*
X195208026Y-134883026D01*
X195483327Y-134471008D01*
X195580000Y-133985000D01*
X195580000Y-132715005D01*
X195676673Y-133201008D01*
X195951974Y-133613026D01*
X196230240Y-133891292D01*
X196230240Y-135361935D01*
X196125069Y-135615214D01*
X196124592Y-136162386D01*
X196230240Y-136418074D01*
X196230240Y-137253708D01*
X195951974Y-137531974D01*
X195676673Y-137943992D01*
X195579999Y-138430000D01*
X195580000Y-138430005D01*
X195580000Y-141749607D01*
X195234896Y-141320500D01*
X194741819Y-141050633D01*
X194659039Y-141033096D01*
X194437000Y-141155085D01*
X194437000Y-142748000D01*
X194457000Y-142748000D01*
X194457000Y-143002000D01*
X194437000Y-143002000D01*
X194437000Y-144594915D01*
X194659039Y-144716904D01*
X194741819Y-144699367D01*
X195234896Y-144429500D01*
X195582136Y-143997738D01*
X195835302Y-144376627D01*
X196300849Y-144687696D01*
X196850000Y-144796929D01*
X197399151Y-144687696D01*
X197864698Y-144376627D01*
X198120000Y-143994541D01*
X198375302Y-144376627D01*
X198840849Y-144687696D01*
X199390000Y-144796929D01*
X199939151Y-144687696D01*
X200404698Y-144376627D01*
X200715767Y-143911080D01*
X200743030Y-143774016D01*
X203155590Y-143774016D01*
X203211271Y-144004611D01*
X203694078Y-144172622D01*
X204204428Y-144143083D01*
X204538729Y-144004611D01*
X204594410Y-143774016D01*
X203875000Y-143054605D01*
X203155590Y-143774016D01*
X200743030Y-143774016D01*
X200825000Y-143361929D01*
X200825000Y-142694078D01*
X202577378Y-142694078D01*
X202606917Y-143204428D01*
X202745389Y-143538729D01*
X202975984Y-143594410D01*
X203695395Y-142875000D01*
X202975984Y-142155590D01*
X202745389Y-142211271D01*
X202577378Y-142694078D01*
X200825000Y-142694078D01*
X200825000Y-142388071D01*
X200743031Y-141975984D01*
X203155590Y-141975984D01*
X203875000Y-142695395D01*
X204594410Y-141975984D01*
X204538729Y-141745389D01*
X204055922Y-141577378D01*
X203545572Y-141606917D01*
X203211271Y-141745389D01*
X203155590Y-141975984D01*
X200743031Y-141975984D01*
X200715767Y-141838920D01*
X200660000Y-141755459D01*
X200660000Y-141496052D01*
X202828023Y-139328028D01*
X202828026Y-139328026D01*
X203103327Y-138916008D01*
X203200000Y-138430000D01*
X203200000Y-134956930D01*
X205582675Y-134956930D01*
X205650735Y-135197931D01*
X206170034Y-135382767D01*
X206720538Y-135354805D01*
X207099265Y-135197931D01*
X207167325Y-134956930D01*
X206375000Y-134164605D01*
X205582675Y-134956930D01*
X203200000Y-134956930D01*
X203200000Y-133876052D01*
X203296018Y-133780034D01*
X204977233Y-133780034D01*
X205005195Y-134330538D01*
X205162069Y-134709265D01*
X205403070Y-134777325D01*
X206195395Y-133985000D01*
X206554605Y-133985000D01*
X207346930Y-134777325D01*
X207587931Y-134709265D01*
X207772767Y-134189966D01*
X207744805Y-133639462D01*
X207587931Y-133260735D01*
X207346930Y-133192675D01*
X206554605Y-133985000D01*
X206195395Y-133985000D01*
X205403070Y-133192675D01*
X205162069Y-133260735D01*
X204977233Y-133780034D01*
X203296018Y-133780034D01*
X204062982Y-133013070D01*
X205582675Y-133013070D01*
X206375000Y-133805395D01*
X207167325Y-133013070D01*
X207099265Y-132772069D01*
X206579966Y-132587233D01*
X206029462Y-132615195D01*
X205650735Y-132772069D01*
X205582675Y-133013070D01*
X204062982Y-133013070D01*
X205631052Y-131445000D01*
X205820441Y-131445000D01*
X206098184Y-131560329D01*
X206649398Y-131560810D01*
X206929679Y-131445000D01*
X207753948Y-131445000D01*
X208280000Y-131971051D01*
X208280000Y-136000969D01*
X207956242Y-136324726D01*
X207439603Y-136538198D01*
X207021606Y-136955466D01*
X206805811Y-137475158D01*
X205476974Y-138803994D01*
X205201673Y-139216012D01*
X205104999Y-139702020D01*
X205105000Y-139702025D01*
X205105000Y-142089497D01*
X205077560Y-142225000D01*
X205077560Y-142387385D01*
X205004611Y-142211271D01*
X204774016Y-142155590D01*
X204054605Y-142875000D01*
X204774016Y-143594410D01*
X205004611Y-143538729D01*
X205077560Y-143329098D01*
X205077560Y-143525000D01*
X205121838Y-143760317D01*
X205260910Y-143976441D01*
X205473110Y-144121431D01*
X205725000Y-144172440D01*
X207025000Y-144172440D01*
X207170831Y-144145000D01*
X207644995Y-144145000D01*
X207645000Y-144145001D01*
X208131008Y-144048327D01*
X208543026Y-143773026D01*
X208806052Y-143510000D01*
X209650534Y-143510000D01*
X209805302Y-143741627D01*
X210270849Y-144052696D01*
X210820000Y-144161929D01*
X211369151Y-144052696D01*
X211834698Y-143741627D01*
X212087864Y-143362738D01*
X212435104Y-143794500D01*
X212928181Y-144064367D01*
X213010961Y-144081904D01*
X213233000Y-143959915D01*
X213233000Y-142367000D01*
X213213000Y-142367000D01*
X213213000Y-142113000D01*
X213233000Y-142113000D01*
X213233000Y-140520085D01*
X213487000Y-140520085D01*
X213487000Y-142113000D01*
X213507000Y-142113000D01*
X213507000Y-142367000D01*
X213487000Y-142367000D01*
X213487000Y-143959915D01*
X213709039Y-144081904D01*
X213791819Y-144064367D01*
X214284896Y-143794500D01*
X214632136Y-143362738D01*
X214885302Y-143741627D01*
X215350849Y-144052696D01*
X215900000Y-144161929D01*
X216449151Y-144052696D01*
X216914698Y-143741627D01*
X217225767Y-143276080D01*
X217335000Y-142726929D01*
X217335000Y-141966052D01*
X219337506Y-139963546D01*
X219612807Y-139551528D01*
X219694486Y-139140902D01*
X219740551Y-139111260D01*
X219885541Y-138899060D01*
X219936550Y-138647170D01*
X219936550Y-136947910D01*
X219892272Y-136712593D01*
X219753200Y-136496469D01*
X219709480Y-136466596D01*
X219709480Y-135254480D01*
X219612807Y-134768472D01*
X219337506Y-134356454D01*
X219337503Y-134356452D01*
X219075000Y-134093949D01*
X219075000Y-133350000D01*
X219183948Y-133350000D01*
X221846661Y-136012713D01*
X222018373Y-136269698D01*
X222483920Y-136580767D01*
X223033071Y-136690000D01*
X224006929Y-136690000D01*
X224121797Y-136667151D01*
X220966974Y-139821974D01*
X220691673Y-140233992D01*
X220594999Y-140720000D01*
X220595000Y-140720005D01*
X220595000Y-141557573D01*
X220071670Y-141340267D01*
X219461009Y-141339735D01*
X218896629Y-141572932D01*
X218464449Y-142004357D01*
X218230267Y-142568330D01*
X218229735Y-143178991D01*
X218462932Y-143743371D01*
X218894357Y-144175551D01*
X219458330Y-144409733D01*
X220068991Y-144410265D01*
X220633371Y-144177068D01*
X220991869Y-143819196D01*
X221136155Y-143963735D01*
X221608276Y-144159777D01*
X222119481Y-144160223D01*
X222591943Y-143965005D01*
X222865160Y-143692266D01*
X223136155Y-143963735D01*
X223608276Y-144159777D01*
X224119481Y-144160223D01*
X224591943Y-143965005D01*
X224865160Y-143692266D01*
X225136155Y-143963735D01*
X225608276Y-144159777D01*
X226119481Y-144160223D01*
X226591943Y-143965005D01*
X226738316Y-143818887D01*
X227094357Y-144175551D01*
X227658330Y-144409733D01*
X228268991Y-144410265D01*
X228833371Y-144177068D01*
X229265551Y-143745643D01*
X229499733Y-143181670D01*
X229500265Y-142571009D01*
X229267068Y-142006629D01*
X228835643Y-141574449D01*
X228271670Y-141340267D01*
X227661009Y-141339735D01*
X227096629Y-141572932D01*
X226738131Y-141930804D01*
X226593845Y-141786265D01*
X226121724Y-141590223D01*
X225965965Y-141590087D01*
X230768023Y-136788028D01*
X230768026Y-136788026D01*
X231043327Y-136376008D01*
X231140000Y-135890000D01*
X231140000Y-135311821D01*
X231502086Y-135162210D01*
X232075273Y-134590022D01*
X234174584Y-134590022D01*
X234395353Y-134960743D01*
X235367012Y-135354119D01*
X236415247Y-135345713D01*
X237344647Y-134960743D01*
X237565416Y-134590022D01*
X235870000Y-132894605D01*
X234174584Y-134590022D01*
X232075273Y-134590022D01*
X232314357Y-134351355D01*
X232754498Y-133291380D01*
X232755439Y-132212012D01*
X233230881Y-132212012D01*
X233239287Y-133260247D01*
X233624257Y-134189647D01*
X233994978Y-134410416D01*
X235690395Y-132715000D01*
X233994978Y-131019584D01*
X233624257Y-131240353D01*
X233230881Y-132212012D01*
X232755439Y-132212012D01*
X232755499Y-132143656D01*
X232317210Y-131082914D01*
X232074698Y-130839978D01*
X234174584Y-130839978D01*
X235870000Y-132535395D01*
X237565416Y-130839978D01*
X237344647Y-130469257D01*
X236372988Y-130075881D01*
X235324753Y-130084287D01*
X234395353Y-130469257D01*
X234174584Y-130839978D01*
X232074698Y-130839978D01*
X231559651Y-130324032D01*
X232343567Y-130649542D01*
X233391834Y-130650457D01*
X234360658Y-130250147D01*
X235102542Y-129509557D01*
X235504542Y-128541433D01*
X235505457Y-127493166D01*
X235105147Y-126524342D01*
X234364557Y-125782458D01*
X233396433Y-125380458D01*
X232348166Y-125379543D01*
X231379342Y-125779853D01*
X230637458Y-126520443D01*
X230235458Y-127488567D01*
X230234543Y-128536834D01*
X230634853Y-129505658D01*
X231322147Y-130194153D01*
X230446380Y-129830502D01*
X229298656Y-129829501D01*
X228237914Y-130267790D01*
X227425643Y-131078645D01*
X226985502Y-132138620D01*
X226985193Y-132492633D01*
X226958026Y-132451974D01*
X226958023Y-132451972D01*
X226323026Y-131816974D01*
X225911008Y-131541673D01*
X225425000Y-131444999D01*
X225424995Y-131445000D01*
X224645393Y-131445000D01*
X225074500Y-131099896D01*
X225344367Y-130606819D01*
X225361904Y-130524039D01*
X225239915Y-130302000D01*
X223647000Y-130302000D01*
X223647000Y-130322000D01*
X223393000Y-130322000D01*
X223393000Y-130302000D01*
X221800085Y-130302000D01*
X221678096Y-130524039D01*
X221695633Y-130606819D01*
X221965500Y-131099896D01*
X222397262Y-131447136D01*
X222018373Y-131700302D01*
X221707304Y-132165849D01*
X221688157Y-132262105D01*
X220608026Y-131181974D01*
X220196008Y-130906673D01*
X219710000Y-130809999D01*
X219709995Y-130810000D01*
X218795573Y-130810000D01*
X218756890Y-130783569D01*
X218505000Y-130732560D01*
X217105000Y-130732560D01*
X216869683Y-130776838D01*
X216653559Y-130915910D01*
X216508569Y-131128110D01*
X216457560Y-131380000D01*
X216457560Y-132780000D01*
X216501838Y-133015317D01*
X216535000Y-133066852D01*
X216535000Y-134619995D01*
X216534999Y-134620000D01*
X216631673Y-135106008D01*
X216906974Y-135518026D01*
X217169480Y-135780532D01*
X217169480Y-136463826D01*
X217138409Y-136483820D01*
X216993419Y-136696020D01*
X216942410Y-136947910D01*
X216942410Y-138647170D01*
X216961314Y-138747634D01*
X215142287Y-140566661D01*
X214885302Y-140738373D01*
X214632136Y-141117262D01*
X214284896Y-140685500D01*
X213791819Y-140415633D01*
X213709039Y-140398096D01*
X213487000Y-140520085D01*
X213233000Y-140520085D01*
X213010961Y-140398096D01*
X212928181Y-140415633D01*
X212435104Y-140685500D01*
X212087864Y-141117262D01*
X211834698Y-140738373D01*
X211369151Y-140427304D01*
X210820000Y-140318071D01*
X210270849Y-140427304D01*
X209805302Y-140738373D01*
X209650534Y-140970000D01*
X208280005Y-140970000D01*
X208280000Y-140969999D01*
X207815956Y-141062304D01*
X207793992Y-141066673D01*
X207645000Y-141166226D01*
X207645000Y-140228072D01*
X208602717Y-139270354D01*
X209119357Y-139056882D01*
X209537354Y-138639614D01*
X209753149Y-138119922D01*
X210448023Y-137425048D01*
X210448026Y-137425046D01*
X210723327Y-137013028D01*
X210745906Y-136899515D01*
X210820001Y-136527020D01*
X210820000Y-136527015D01*
X210820000Y-133015275D01*
X212049331Y-133015275D01*
X212111169Y-133251042D01*
X212612122Y-133427419D01*
X213142440Y-133398664D01*
X213498831Y-133251042D01*
X213560669Y-133015275D01*
X212805000Y-132259605D01*
X212049331Y-133015275D01*
X210820000Y-133015275D01*
X210820000Y-131887122D01*
X211457581Y-131887122D01*
X211486336Y-132417440D01*
X211633958Y-132773831D01*
X211869725Y-132835669D01*
X212625395Y-132080000D01*
X212984605Y-132080000D01*
X213740275Y-132835669D01*
X213976042Y-132773831D01*
X214152419Y-132272878D01*
X214123664Y-131742560D01*
X213976042Y-131386169D01*
X213740275Y-131324331D01*
X212984605Y-132080000D01*
X212625395Y-132080000D01*
X211869725Y-131324331D01*
X211633958Y-131386169D01*
X211457581Y-131887122D01*
X210820000Y-131887122D01*
X210820000Y-131445000D01*
X210760272Y-131144725D01*
X212049331Y-131144725D01*
X212805000Y-131900395D01*
X213560669Y-131144725D01*
X213498831Y-130908958D01*
X212997878Y-130732581D01*
X212467560Y-130761336D01*
X212111169Y-130908958D01*
X212049331Y-131144725D01*
X210760272Y-131144725D01*
X210723327Y-130958992D01*
X210448026Y-130546974D01*
X210448023Y-130546972D01*
X209727013Y-129825961D01*
X221678096Y-129825961D01*
X221800085Y-130048000D01*
X223393000Y-130048000D01*
X223393000Y-128740000D01*
X223647000Y-128740000D01*
X223647000Y-130048000D01*
X225239915Y-130048000D01*
X225361904Y-129825961D01*
X225344367Y-129743181D01*
X225074500Y-129250104D01*
X224636483Y-128897834D01*
X224097000Y-128740000D01*
X223647000Y-128740000D01*
X223393000Y-128740000D01*
X222943000Y-128740000D01*
X222403517Y-128897834D01*
X221965500Y-129250104D01*
X221695633Y-129743181D01*
X221678096Y-129825961D01*
X209727013Y-129825961D01*
X209193470Y-129292418D01*
X209405295Y-129433954D01*
X209677000Y-129488000D01*
X209948705Y-129433954D01*
X210179046Y-129280046D01*
X210332954Y-129049705D01*
X210353486Y-128946486D01*
X210456705Y-128925954D01*
X210687046Y-128772046D01*
X210840954Y-128541705D01*
X210895000Y-128270000D01*
X210840954Y-127998295D01*
X210687046Y-127767954D01*
X210456705Y-127614046D01*
X210353486Y-127593514D01*
X210332954Y-127490295D01*
X210288014Y-127423037D01*
X210448023Y-127263028D01*
X210448026Y-127263026D01*
X210723327Y-126851008D01*
X210757398Y-126679724D01*
X210820001Y-126365000D01*
X210820000Y-126364995D01*
X210820000Y-125334073D01*
X210865041Y-125305090D01*
X211008589Y-125095000D01*
X212198948Y-125095000D01*
X213096972Y-125993023D01*
X213096974Y-125993026D01*
X213508992Y-126268327D01*
X213995000Y-126365000D01*
X216833210Y-126365000D01*
X216905997Y-126437914D01*
X217488341Y-126679724D01*
X218118893Y-126680275D01*
X218701657Y-126439481D01*
X218799337Y-126341971D01*
X218930910Y-126546441D01*
X219143110Y-126691431D01*
X219395000Y-126742440D01*
X221295000Y-126742440D01*
X221530317Y-126698162D01*
X221746441Y-126559090D01*
X221879057Y-126365000D01*
X222884995Y-126365000D01*
X222885000Y-126365001D01*
X223371008Y-126268327D01*
X223783026Y-125993026D01*
X224418023Y-125358028D01*
X224418026Y-125358026D01*
X224693327Y-124946008D01*
X224730271Y-124760275D01*
X232924331Y-124760275D01*
X232986169Y-124996042D01*
X233487122Y-125172419D01*
X234017440Y-125143664D01*
X234373831Y-124996042D01*
X234435669Y-124760275D01*
X233680000Y-124004605D01*
X232924331Y-124760275D01*
X224730271Y-124760275D01*
X224790001Y-124460000D01*
X224790000Y-124459995D01*
X224790000Y-124247691D01*
X224854768Y-124091713D01*
X224855168Y-123632122D01*
X232332581Y-123632122D01*
X232361336Y-124162440D01*
X232508958Y-124518831D01*
X232744725Y-124580669D01*
X233500395Y-123825000D01*
X233859605Y-123825000D01*
X234615275Y-124580669D01*
X234851042Y-124518831D01*
X235027419Y-124017878D01*
X234998664Y-123487560D01*
X234851042Y-123131169D01*
X234615275Y-123069331D01*
X233859605Y-123825000D01*
X233500395Y-123825000D01*
X232744725Y-123069331D01*
X232508958Y-123131169D01*
X232332581Y-123632122D01*
X224855168Y-123632122D01*
X224855231Y-123560617D01*
X224652418Y-123069771D01*
X224472686Y-122889725D01*
X232924331Y-122889725D01*
X233680000Y-123645395D01*
X234435669Y-122889725D01*
X234373831Y-122653958D01*
X233872878Y-122477581D01*
X233342560Y-122506336D01*
X232986169Y-122653958D01*
X232924331Y-122889725D01*
X224472686Y-122889725D01*
X224277204Y-122693902D01*
X223786713Y-122490232D01*
X223255617Y-122489769D01*
X222764771Y-122692582D01*
X222388902Y-123067796D01*
X222185232Y-123558287D01*
X222184999Y-123825000D01*
X221875844Y-123825000D01*
X221759090Y-123643559D01*
X221546890Y-123498569D01*
X221295000Y-123447560D01*
X219395000Y-123447560D01*
X219159683Y-123491838D01*
X218943559Y-123630910D01*
X218798569Y-123843110D01*
X218797945Y-123846192D01*
X218704003Y-123752086D01*
X218121659Y-123510276D01*
X217491107Y-123509725D01*
X216908343Y-123750519D01*
X216833732Y-123825000D01*
X214521051Y-123825000D01*
X213623026Y-122926974D01*
X213211008Y-122651673D01*
X212725000Y-122554999D01*
X212724995Y-122555000D01*
X211004740Y-122555000D01*
X210877690Y-122357559D01*
X210665490Y-122212569D01*
X210413600Y-122161560D01*
X208686400Y-122161560D01*
X208451083Y-122205838D01*
X208234959Y-122344910D01*
X208089969Y-122557110D01*
X208070768Y-122651927D01*
X207912036Y-122474268D01*
X207384791Y-122220291D01*
X207369026Y-122217642D01*
X207137000Y-122338783D01*
X207137000Y-123698000D01*
X207157000Y-123698000D01*
X207157000Y-123952000D01*
X207137000Y-123952000D01*
X207137000Y-125311217D01*
X207369026Y-125432358D01*
X207384791Y-125429709D01*
X207912036Y-125175732D01*
X208068907Y-125000155D01*
X208083238Y-125076317D01*
X208222310Y-125292441D01*
X208280000Y-125331859D01*
X208280000Y-125730000D01*
X207645000Y-125730000D01*
X207158992Y-125826673D01*
X206746974Y-126101974D01*
X206746972Y-126101977D01*
X205476974Y-127371974D01*
X205201673Y-127783992D01*
X205104999Y-128270000D01*
X205105000Y-128270005D01*
X205105000Y-128904999D01*
X205104995Y-128905000D01*
X204361051Y-128905000D01*
X202193026Y-126736974D01*
X201781008Y-126461673D01*
X201295000Y-126364999D01*
X201294995Y-126365000D01*
X195580000Y-126365000D01*
X195244464Y-126431742D01*
X195539454Y-125721326D01*
X195540543Y-124474146D01*
X195421861Y-124186913D01*
X200444816Y-124186913D01*
X200638046Y-124739320D01*
X201027964Y-125175732D01*
X201555209Y-125429709D01*
X201570974Y-125432358D01*
X201803000Y-125311217D01*
X201803000Y-123952000D01*
X200589076Y-123952000D01*
X200444816Y-124186913D01*
X195421861Y-124186913D01*
X195122782Y-123463087D01*
X200444816Y-123463087D01*
X200589076Y-123698000D01*
X201803000Y-123698000D01*
X201803000Y-122338783D01*
X202057000Y-122338783D01*
X202057000Y-123698000D01*
X202077000Y-123698000D01*
X202077000Y-123952000D01*
X202057000Y-123952000D01*
X202057000Y-125311217D01*
X202289026Y-125432358D01*
X202304791Y-125429709D01*
X202832036Y-125175732D01*
X203203539Y-124759931D01*
X203410330Y-125069415D01*
X203896511Y-125394271D01*
X204470000Y-125508345D01*
X205043489Y-125394271D01*
X205529670Y-125069415D01*
X205736461Y-124759931D01*
X206107964Y-125175732D01*
X206635209Y-125429709D01*
X206650974Y-125432358D01*
X206883000Y-125311217D01*
X206883000Y-123952000D01*
X206863000Y-123952000D01*
X206863000Y-123698000D01*
X206883000Y-123698000D01*
X206883000Y-122338783D01*
X206650974Y-122217642D01*
X206635209Y-122220291D01*
X206107964Y-122474268D01*
X205736461Y-122890069D01*
X205529670Y-122580585D01*
X205043489Y-122255729D01*
X204470000Y-122141655D01*
X203896511Y-122255729D01*
X203410330Y-122580585D01*
X203203539Y-122890069D01*
X202832036Y-122474268D01*
X202304791Y-122220291D01*
X202289026Y-122217642D01*
X202057000Y-122338783D01*
X201803000Y-122338783D01*
X201570974Y-122217642D01*
X201555209Y-122220291D01*
X201027964Y-122474268D01*
X200638046Y-122910680D01*
X200444816Y-123463087D01*
X195122782Y-123463087D01*
X195064273Y-123321485D01*
X194183153Y-122438826D01*
X193054094Y-121970000D01*
X238075000Y-121970000D01*
X238075000Y-131216090D01*
G36*
X202673948Y-130810000D02*
X201031974Y-132451974D01*
X200756673Y-132863992D01*
X200659999Y-133350000D01*
X200660000Y-133350005D01*
X200660000Y-135158964D01*
X200466327Y-135105038D01*
X199681365Y-135890000D01*
X200466327Y-136674962D01*
X200660000Y-136621036D01*
X200660000Y-137903949D01*
X198491974Y-140071974D01*
X198216673Y-140483992D01*
X198120000Y-140969995D01*
X198120000Y-138956051D01*
X198398263Y-138677788D01*
X198398266Y-138677786D01*
X198673567Y-138265768D01*
X198770240Y-137779760D01*
X198770240Y-137046502D01*
X198783609Y-137094516D01*
X199299223Y-137277652D01*
X199845672Y-137249531D01*
X200219911Y-137094516D01*
X200286722Y-136854567D01*
X199501760Y-136069605D01*
X199487618Y-136083748D01*
X199308013Y-135904143D01*
X199322155Y-135890000D01*
X199308013Y-135875858D01*
X199487618Y-135696253D01*
X199501760Y-135710395D01*
X200286722Y-134925433D01*
X200219911Y-134685484D01*
X199704297Y-134502348D01*
X199157848Y-134530469D01*
X198783609Y-134685484D01*
X198770240Y-134733498D01*
X198770240Y-133365240D01*
X198673567Y-132879232D01*
X198398266Y-132467214D01*
X198398263Y-132467212D01*
X198120000Y-132188949D01*
X198120000Y-131709016D01*
X198630590Y-131709016D01*
X198686271Y-131939611D01*
X199169078Y-132107622D01*
X199679428Y-132078083D01*
X200013729Y-131939611D01*
X200069410Y-131709016D01*
X199350000Y-130989605D01*
X198630590Y-131709016D01*
X198120000Y-131709016D01*
X198120000Y-131595503D01*
X198147440Y-131460000D01*
X198147440Y-131297615D01*
X198220389Y-131473729D01*
X198450984Y-131529410D01*
X199170395Y-130810000D01*
X199529605Y-130810000D01*
X200249016Y-131529410D01*
X200479611Y-131473729D01*
X200647622Y-130990922D01*
X200618083Y-130480572D01*
X200479611Y-130146271D01*
X200249016Y-130090590D01*
X199529605Y-130810000D01*
X199170395Y-130810000D01*
X198450984Y-130090590D01*
X198220389Y-130146271D01*
X198147440Y-130355902D01*
X198147440Y-130160000D01*
X198103162Y-129924683D01*
X198094347Y-129910984D01*
X198630590Y-129910984D01*
X199350000Y-130630395D01*
X200069410Y-129910984D01*
X200013729Y-129680389D01*
X199530922Y-129512378D01*
X199020572Y-129541917D01*
X198686271Y-129680389D01*
X198630590Y-129910984D01*
X198094347Y-129910984D01*
X197964090Y-129708559D01*
X197751890Y-129563569D01*
X197500000Y-129512560D01*
X196200000Y-129512560D01*
X196054169Y-129540000D01*
X195580000Y-129540000D01*
X195443999Y-129567052D01*
X196106051Y-128905000D01*
X200768948Y-128905000D01*
X202673948Y-130810000D01*
X202673948Y-130810000D01*
G37*
X202673948Y-130810000D02*
X201031974Y-132451974D01*
X200756673Y-132863992D01*
X200659999Y-133350000D01*
X200660000Y-133350005D01*
X200660000Y-135158964D01*
X200466327Y-135105038D01*
X199681365Y-135890000D01*
X200466327Y-136674962D01*
X200660000Y-136621036D01*
X200660000Y-137903949D01*
X198491974Y-140071974D01*
X198216673Y-140483992D01*
X198120000Y-140969995D01*
X198120000Y-138956051D01*
X198398263Y-138677788D01*
X198398266Y-138677786D01*
X198673567Y-138265768D01*
X198770240Y-137779760D01*
X198770240Y-137046502D01*
X198783609Y-137094516D01*
X199299223Y-137277652D01*
X199845672Y-137249531D01*
X200219911Y-137094516D01*
X200286722Y-136854567D01*
X199501760Y-136069605D01*
X199487618Y-136083748D01*
X199308013Y-135904143D01*
X199322155Y-135890000D01*
X199308013Y-135875858D01*
X199487618Y-135696253D01*
X199501760Y-135710395D01*
X200286722Y-134925433D01*
X200219911Y-134685484D01*
X199704297Y-134502348D01*
X199157848Y-134530469D01*
X198783609Y-134685484D01*
X198770240Y-134733498D01*
X198770240Y-133365240D01*
X198673567Y-132879232D01*
X198398266Y-132467214D01*
X198398263Y-132467212D01*
X198120000Y-132188949D01*
X198120000Y-131709016D01*
X198630590Y-131709016D01*
X198686271Y-131939611D01*
X199169078Y-132107622D01*
X199679428Y-132078083D01*
X200013729Y-131939611D01*
X200069410Y-131709016D01*
X199350000Y-130989605D01*
X198630590Y-131709016D01*
X198120000Y-131709016D01*
X198120000Y-131595503D01*
X198147440Y-131460000D01*
X198147440Y-131297615D01*
X198220389Y-131473729D01*
X198450984Y-131529410D01*
X199170395Y-130810000D01*
X199529605Y-130810000D01*
X200249016Y-131529410D01*
X200479611Y-131473729D01*
X200647622Y-130990922D01*
X200618083Y-130480572D01*
X200479611Y-130146271D01*
X200249016Y-130090590D01*
X199529605Y-130810000D01*
X199170395Y-130810000D01*
X198450984Y-130090590D01*
X198220389Y-130146271D01*
X198147440Y-130355902D01*
X198147440Y-130160000D01*
X198103162Y-129924683D01*
X198094347Y-129910984D01*
X198630590Y-129910984D01*
X199350000Y-130630395D01*
X200069410Y-129910984D01*
X200013729Y-129680389D01*
X199530922Y-129512378D01*
X199020572Y-129541917D01*
X198686271Y-129680389D01*
X198630590Y-129910984D01*
X198094347Y-129910984D01*
X197964090Y-129708559D01*
X197751890Y-129563569D01*
X197500000Y-129512560D01*
X196200000Y-129512560D01*
X196054169Y-129540000D01*
X195580000Y-129540000D01*
X195443999Y-129567052D01*
X196106051Y-128905000D01*
X200768948Y-128905000D01*
X202673948Y-130810000D01*
M02*
