M48
INCH,TZ
T1C0.030
T2C0.031
T3C0.032
T4C0.032
T5C0.035
T6C0.039
T7C0.040
T8C0.047
T9C0.049
T10C0.118
T11C0.126
T12C0.138
%
G90
G05
T1
X88000Y-48750
X92000Y-48750
T2
X77500Y-51500
X81250Y-56250
X87348Y-56250
X88136Y-56250
X88923Y-56250
T3
X77756Y-53500
X78484Y-51500
X78544Y-53500
X80266Y-56250
X81250Y-51250
X81250Y-52750
T4
X82000Y-54251
X86000Y-54251
T5
X83781Y-52000
X85750Y-52000
T6
X85750Y-49250
X86750Y-49250
T7
X75250Y-51250
X75250Y-52250
X75250Y-53250
X75250Y-54250
X79500Y-48750
X80500Y-48750
X81500Y-48750
X82500Y-48750
T8
X76500Y-56250
X77500Y-56250
X78500Y-56250
X83000Y-56000
X84000Y-56000
X85000Y-56000
X88000Y-51250
X88000Y-52250
X88000Y-53250
T9
X86522Y-56250
X89750Y-56250
T10
X91681Y-50400
X92862Y-52250
T11
X75750Y-49250
X92500Y-56000
T12
X90500Y-52250
T0
M30
