G04 #@! TF.FileFunction,Copper,L2,Bot,Signal*
%FSLAX46Y46*%
G04 Gerber Fmt 4.6, Leading zero omitted, Abs format (unit mm)*
G04 Created by KiCad (PCBNEW (2015-08-16 BZR 6097, Git b384c94)-product) date 11/6/2015 8:34:41 PM*
%MOMM*%
G01*
G04 APERTURE LIST*
%ADD10C,0.100000*%
%ADD11C,5.000000*%
%ADD12C,4.500000*%
%ADD13C,4.000000*%
%ADD14R,1.900000X2.000000*%
%ADD15C,1.900000*%
%ADD16C,1.300000*%
%ADD17C,1.800000*%
%ADD18R,1.400000X1.400000*%
%ADD19C,1.400000*%
%ADD20R,1.300000X1.300000*%
%ADD21C,1.699260*%
%ADD22R,1.699260X1.699260*%
%ADD23O,2.500000X1.600000*%
%ADD24O,1.600000X2.500000*%
%ADD25C,1.501140*%
%ADD26C,1.480820*%
%ADD27R,2.032000X1.727200*%
%ADD28O,2.032000X1.727200*%
%ADD29R,1.727200X2.032000*%
%ADD30O,1.727200X2.032000*%
%ADD31C,1.270000*%
%ADD32C,0.254000*%
G04 APERTURE END LIST*
D10*
D11*
X192405000Y-125095000D03*
X234950000Y-142240000D03*
D12*
X229870000Y-132715000D03*
D13*
X235870000Y-132715000D03*
X232870000Y-128015000D03*
D14*
X220345000Y-125095000D03*
D15*
X217805000Y-125095000D03*
D16*
X221865000Y-142875000D03*
X225865000Y-142875000D03*
D17*
X219765000Y-142875000D03*
X227965000Y-142875000D03*
D16*
X223865000Y-142875000D03*
D18*
X217805000Y-132080000D03*
D19*
X212805000Y-132080000D03*
D20*
X206375000Y-142875000D03*
D16*
X203875000Y-142875000D03*
D21*
X208279480Y-137797540D03*
D22*
X218439480Y-137797540D03*
D23*
X223520000Y-132715000D03*
X223520000Y-130175000D03*
X223520000Y-135255000D03*
D24*
X213360000Y-142240000D03*
X215900000Y-142240000D03*
X210820000Y-142240000D03*
D25*
X206375000Y-133985000D03*
X206375000Y-130175000D03*
D19*
X223520000Y-123825000D03*
X233680000Y-123825000D03*
D26*
X197500240Y-135890000D03*
X199501760Y-135890000D03*
D20*
X196850000Y-130810000D03*
D16*
X199350000Y-130810000D03*
D27*
X191135000Y-130175000D03*
D28*
X191135000Y-132715000D03*
X191135000Y-135255000D03*
X191135000Y-137795000D03*
D29*
X209550000Y-123825000D03*
D30*
X207010000Y-123825000D03*
X204470000Y-123825000D03*
X201930000Y-123825000D03*
D24*
X196850000Y-142875000D03*
X194310000Y-142875000D03*
X199390000Y-142875000D03*
D31*
X196850000Y-130810000D02*
X196850000Y-128270000D01*
X196850000Y-128270000D02*
X198120000Y-127000000D01*
X198120000Y-127000000D02*
X203200000Y-127000000D01*
X203200000Y-127000000D02*
X204470000Y-125730000D01*
X204470000Y-125730000D02*
X204470000Y-123825000D01*
D32*
G36*
X238075000Y-131216090D02*
X237745022Y-131019584D01*
X236049605Y-132715000D01*
X237745022Y-134410416D01*
X238075000Y-134213910D01*
X238075000Y-141593630D01*
X237609273Y-140466485D01*
X236728153Y-139583826D01*
X235576326Y-139105546D01*
X234329146Y-139104457D01*
X233176485Y-139580727D01*
X232293826Y-140461847D01*
X231815546Y-141613674D01*
X231814457Y-142860854D01*
X232290727Y-144013515D01*
X233171847Y-144896174D01*
X234300906Y-145365000D01*
X189280000Y-145365000D01*
X189280000Y-143002000D01*
X192875000Y-143002000D01*
X192875000Y-143452000D01*
X193032834Y-143991483D01*
X193385104Y-144429500D01*
X193878181Y-144699367D01*
X193960961Y-144716904D01*
X194183000Y-144594915D01*
X194183000Y-143002000D01*
X192875000Y-143002000D01*
X189280000Y-143002000D01*
X189280000Y-142298000D01*
X192875000Y-142298000D01*
X192875000Y-142748000D01*
X194183000Y-142748000D01*
X194183000Y-141155085D01*
X194437000Y-141155085D01*
X194437000Y-142748000D01*
X194457000Y-142748000D01*
X194457000Y-143002000D01*
X194437000Y-143002000D01*
X194437000Y-144594915D01*
X194659039Y-144716904D01*
X194741819Y-144699367D01*
X195234896Y-144429500D01*
X195582136Y-143997738D01*
X195835302Y-144376627D01*
X196300849Y-144687696D01*
X196850000Y-144796929D01*
X197399151Y-144687696D01*
X197864698Y-144376627D01*
X198120000Y-143994541D01*
X198375302Y-144376627D01*
X198840849Y-144687696D01*
X199390000Y-144796929D01*
X199939151Y-144687696D01*
X200404698Y-144376627D01*
X200715767Y-143911080D01*
X200743030Y-143774016D01*
X203155590Y-143774016D01*
X203211271Y-144004611D01*
X203694078Y-144172622D01*
X204204428Y-144143083D01*
X204538729Y-144004611D01*
X204594410Y-143774016D01*
X203875000Y-143054605D01*
X203155590Y-143774016D01*
X200743030Y-143774016D01*
X200825000Y-143361929D01*
X200825000Y-142694078D01*
X202577378Y-142694078D01*
X202606917Y-143204428D01*
X202745389Y-143538729D01*
X202975984Y-143594410D01*
X203695395Y-142875000D01*
X204054605Y-142875000D01*
X204774016Y-143594410D01*
X205004611Y-143538729D01*
X205077560Y-143329098D01*
X205077560Y-143525000D01*
X205121838Y-143760317D01*
X205260910Y-143976441D01*
X205473110Y-144121431D01*
X205725000Y-144172440D01*
X207025000Y-144172440D01*
X207260317Y-144128162D01*
X207476441Y-143989090D01*
X207621431Y-143776890D01*
X207672440Y-143525000D01*
X207672440Y-142225000D01*
X207628162Y-141989683D01*
X207489090Y-141773559D01*
X207459105Y-141753071D01*
X209385000Y-141753071D01*
X209385000Y-142726929D01*
X209494233Y-143276080D01*
X209805302Y-143741627D01*
X210270849Y-144052696D01*
X210820000Y-144161929D01*
X211369151Y-144052696D01*
X211834698Y-143741627D01*
X212087864Y-143362738D01*
X212435104Y-143794500D01*
X212928181Y-144064367D01*
X213010961Y-144081904D01*
X213233000Y-143959915D01*
X213233000Y-142367000D01*
X213213000Y-142367000D01*
X213213000Y-142113000D01*
X213233000Y-142113000D01*
X213233000Y-140520085D01*
X213487000Y-140520085D01*
X213487000Y-142113000D01*
X213507000Y-142113000D01*
X213507000Y-142367000D01*
X213487000Y-142367000D01*
X213487000Y-143959915D01*
X213709039Y-144081904D01*
X213791819Y-144064367D01*
X214284896Y-143794500D01*
X214632136Y-143362738D01*
X214885302Y-143741627D01*
X215350849Y-144052696D01*
X215900000Y-144161929D01*
X216449151Y-144052696D01*
X216914698Y-143741627D01*
X217225767Y-143276080D01*
X217245079Y-143178991D01*
X218229735Y-143178991D01*
X218462932Y-143743371D01*
X218894357Y-144175551D01*
X219458330Y-144409733D01*
X220068991Y-144410265D01*
X220633371Y-144177068D01*
X220991869Y-143819196D01*
X221136155Y-143963735D01*
X221608276Y-144159777D01*
X222119481Y-144160223D01*
X222591943Y-143965005D01*
X222865160Y-143692266D01*
X223136155Y-143963735D01*
X223608276Y-144159777D01*
X224119481Y-144160223D01*
X224591943Y-143965005D01*
X224865160Y-143692266D01*
X225136155Y-143963735D01*
X225608276Y-144159777D01*
X226119481Y-144160223D01*
X226591943Y-143965005D01*
X226738316Y-143818887D01*
X227094357Y-144175551D01*
X227658330Y-144409733D01*
X228268991Y-144410265D01*
X228833371Y-144177068D01*
X229265551Y-143745643D01*
X229499733Y-143181670D01*
X229500265Y-142571009D01*
X229267068Y-142006629D01*
X228835643Y-141574449D01*
X228271670Y-141340267D01*
X227661009Y-141339735D01*
X227096629Y-141572932D01*
X226738131Y-141930804D01*
X226593845Y-141786265D01*
X226121724Y-141590223D01*
X225610519Y-141589777D01*
X225138057Y-141784995D01*
X224864840Y-142057734D01*
X224593845Y-141786265D01*
X224121724Y-141590223D01*
X223610519Y-141589777D01*
X223138057Y-141784995D01*
X222864840Y-142057734D01*
X222593845Y-141786265D01*
X222121724Y-141590223D01*
X221610519Y-141589777D01*
X221138057Y-141784995D01*
X220991684Y-141931113D01*
X220635643Y-141574449D01*
X220071670Y-141340267D01*
X219461009Y-141339735D01*
X218896629Y-141572932D01*
X218464449Y-142004357D01*
X218230267Y-142568330D01*
X218229735Y-143178991D01*
X217245079Y-143178991D01*
X217335000Y-142726929D01*
X217335000Y-141753071D01*
X217225767Y-141203920D01*
X216914698Y-140738373D01*
X216449151Y-140427304D01*
X215900000Y-140318071D01*
X215350849Y-140427304D01*
X214885302Y-140738373D01*
X214632136Y-141117262D01*
X214284896Y-140685500D01*
X213791819Y-140415633D01*
X213709039Y-140398096D01*
X213487000Y-140520085D01*
X213233000Y-140520085D01*
X213010961Y-140398096D01*
X212928181Y-140415633D01*
X212435104Y-140685500D01*
X212087864Y-141117262D01*
X211834698Y-140738373D01*
X211369151Y-140427304D01*
X210820000Y-140318071D01*
X210270849Y-140427304D01*
X209805302Y-140738373D01*
X209494233Y-141203920D01*
X209385000Y-141753071D01*
X207459105Y-141753071D01*
X207276890Y-141628569D01*
X207025000Y-141577560D01*
X205725000Y-141577560D01*
X205489683Y-141621838D01*
X205273559Y-141760910D01*
X205128569Y-141973110D01*
X205077560Y-142225000D01*
X205077560Y-142387385D01*
X205004611Y-142211271D01*
X204774016Y-142155590D01*
X204054605Y-142875000D01*
X203695395Y-142875000D01*
X202975984Y-142155590D01*
X202745389Y-142211271D01*
X202577378Y-142694078D01*
X200825000Y-142694078D01*
X200825000Y-142388071D01*
X200743031Y-141975984D01*
X203155590Y-141975984D01*
X203875000Y-142695395D01*
X204594410Y-141975984D01*
X204538729Y-141745389D01*
X204055922Y-141577378D01*
X203545572Y-141606917D01*
X203211271Y-141745389D01*
X203155590Y-141975984D01*
X200743031Y-141975984D01*
X200715767Y-141838920D01*
X200404698Y-141373373D01*
X199939151Y-141062304D01*
X199390000Y-140953071D01*
X198840849Y-141062304D01*
X198375302Y-141373373D01*
X198120000Y-141755459D01*
X197864698Y-141373373D01*
X197399151Y-141062304D01*
X196850000Y-140953071D01*
X196300849Y-141062304D01*
X195835302Y-141373373D01*
X195582136Y-141752262D01*
X195234896Y-141320500D01*
X194741819Y-141050633D01*
X194659039Y-141033096D01*
X194437000Y-141155085D01*
X194183000Y-141155085D01*
X193960961Y-141033096D01*
X193878181Y-141050633D01*
X193385104Y-141320500D01*
X193032834Y-141758517D01*
X192875000Y-142298000D01*
X189280000Y-142298000D01*
X189280000Y-138154026D01*
X189527642Y-138154026D01*
X189530291Y-138169791D01*
X189784268Y-138697036D01*
X190220680Y-139086954D01*
X190773087Y-139280184D01*
X191008000Y-139135924D01*
X191008000Y-137922000D01*
X191262000Y-137922000D01*
X191262000Y-139135924D01*
X191496913Y-139280184D01*
X192049320Y-139086954D01*
X192485732Y-138697036D01*
X192739709Y-138169791D01*
X192742358Y-138154026D01*
X192709743Y-138091556D01*
X206794592Y-138091556D01*
X207020138Y-138637417D01*
X207437406Y-139055414D01*
X207982873Y-139281912D01*
X208573496Y-139282428D01*
X209119357Y-139056882D01*
X209537354Y-138639614D01*
X209763852Y-138094147D01*
X209764368Y-137503524D01*
X209538822Y-136957663D01*
X209529087Y-136947910D01*
X216942410Y-136947910D01*
X216942410Y-138647170D01*
X216986688Y-138882487D01*
X217125760Y-139098611D01*
X217337960Y-139243601D01*
X217589850Y-139294610D01*
X219289110Y-139294610D01*
X219524427Y-139250332D01*
X219740551Y-139111260D01*
X219885541Y-138899060D01*
X219936550Y-138647170D01*
X219936550Y-136947910D01*
X219892272Y-136712593D01*
X219753200Y-136496469D01*
X219541000Y-136351479D01*
X219289110Y-136300470D01*
X217589850Y-136300470D01*
X217354533Y-136344748D01*
X217138409Y-136483820D01*
X216993419Y-136696020D01*
X216942410Y-136947910D01*
X209529087Y-136947910D01*
X209121554Y-136539666D01*
X208576087Y-136313168D01*
X207985464Y-136312652D01*
X207439603Y-136538198D01*
X207021606Y-136955466D01*
X206795108Y-137500933D01*
X206794592Y-138091556D01*
X192709743Y-138091556D01*
X192621217Y-137922000D01*
X191262000Y-137922000D01*
X191008000Y-137922000D01*
X189648783Y-137922000D01*
X189527642Y-138154026D01*
X189280000Y-138154026D01*
X189280000Y-135255000D01*
X189451655Y-135255000D01*
X189565729Y-135828489D01*
X189890585Y-136314670D01*
X190200069Y-136521461D01*
X189784268Y-136892964D01*
X189530291Y-137420209D01*
X189527642Y-137435974D01*
X189648783Y-137668000D01*
X191008000Y-137668000D01*
X191008000Y-137648000D01*
X191262000Y-137648000D01*
X191262000Y-137668000D01*
X192621217Y-137668000D01*
X192742358Y-137435974D01*
X192739709Y-137420209D01*
X192485732Y-136892964D01*
X192069931Y-136521461D01*
X192379415Y-136314670D01*
X192481167Y-136162386D01*
X196124592Y-136162386D01*
X196333544Y-136668089D01*
X196720116Y-137055336D01*
X197225454Y-137265171D01*
X197772626Y-137265648D01*
X198278329Y-137056696D01*
X198480810Y-136854567D01*
X198716798Y-136854567D01*
X198783609Y-137094516D01*
X199299223Y-137277652D01*
X199845672Y-137249531D01*
X200219911Y-137094516D01*
X200286722Y-136854567D01*
X199501760Y-136069605D01*
X198716798Y-136854567D01*
X198480810Y-136854567D01*
X198665576Y-136670124D01*
X198753305Y-136458850D01*
X199322155Y-135890000D01*
X199681365Y-135890000D01*
X200466327Y-136674962D01*
X200706276Y-136608151D01*
X200889412Y-136092537D01*
X200861291Y-135546088D01*
X200706276Y-135171849D01*
X200466327Y-135105038D01*
X199681365Y-135890000D01*
X199322155Y-135890000D01*
X198753453Y-135321298D01*
X198666936Y-135111911D01*
X198480784Y-134925433D01*
X198716798Y-134925433D01*
X199501760Y-135710395D01*
X200255225Y-134956930D01*
X205582675Y-134956930D01*
X205650735Y-135197931D01*
X206170034Y-135382767D01*
X206720538Y-135354805D01*
X207099265Y-135197931D01*
X207167325Y-134956930D01*
X206375000Y-134164605D01*
X205582675Y-134956930D01*
X200255225Y-134956930D01*
X200286722Y-134925433D01*
X200219911Y-134685484D01*
X199704297Y-134502348D01*
X199157848Y-134530469D01*
X198783609Y-134685484D01*
X198716798Y-134925433D01*
X198480784Y-134925433D01*
X198280364Y-134724664D01*
X197775026Y-134514829D01*
X197227854Y-134514352D01*
X196722151Y-134723304D01*
X196334904Y-135109876D01*
X196125069Y-135615214D01*
X196124592Y-136162386D01*
X192481167Y-136162386D01*
X192704271Y-135828489D01*
X192818345Y-135255000D01*
X192704271Y-134681511D01*
X192379415Y-134195330D01*
X192069931Y-133988539D01*
X192303298Y-133780034D01*
X204977233Y-133780034D01*
X205005195Y-134330538D01*
X205162069Y-134709265D01*
X205403070Y-134777325D01*
X206195395Y-133985000D01*
X206554605Y-133985000D01*
X207346930Y-134777325D01*
X207587931Y-134709265D01*
X207772767Y-134189966D01*
X207744805Y-133639462D01*
X207587931Y-133260735D01*
X207346930Y-133192675D01*
X206554605Y-133985000D01*
X206195395Y-133985000D01*
X205403070Y-133192675D01*
X205162069Y-133260735D01*
X204977233Y-133780034D01*
X192303298Y-133780034D01*
X192485732Y-133617036D01*
X192739709Y-133089791D01*
X192742358Y-133074026D01*
X192710533Y-133013070D01*
X205582675Y-133013070D01*
X206375000Y-133805395D01*
X207165120Y-133015275D01*
X212049331Y-133015275D01*
X212111169Y-133251042D01*
X212612122Y-133427419D01*
X213142440Y-133398664D01*
X213498831Y-133251042D01*
X213560669Y-133015275D01*
X212805000Y-132259605D01*
X212049331Y-133015275D01*
X207165120Y-133015275D01*
X207167325Y-133013070D01*
X207099265Y-132772069D01*
X206579966Y-132587233D01*
X206029462Y-132615195D01*
X205650735Y-132772069D01*
X205582675Y-133013070D01*
X192710533Y-133013070D01*
X192621217Y-132842000D01*
X191262000Y-132842000D01*
X191262000Y-132862000D01*
X191008000Y-132862000D01*
X191008000Y-132842000D01*
X189648783Y-132842000D01*
X189527642Y-133074026D01*
X189530291Y-133089791D01*
X189784268Y-133617036D01*
X190200069Y-133988539D01*
X189890585Y-134195330D01*
X189565729Y-134681511D01*
X189451655Y-135255000D01*
X189280000Y-135255000D01*
X189280000Y-129311400D01*
X189471560Y-129311400D01*
X189471560Y-131038600D01*
X189515838Y-131273917D01*
X189654910Y-131490041D01*
X189867110Y-131635031D01*
X189961927Y-131654232D01*
X189784268Y-131812964D01*
X189530291Y-132340209D01*
X189527642Y-132355974D01*
X189648783Y-132588000D01*
X191008000Y-132588000D01*
X191008000Y-132568000D01*
X191262000Y-132568000D01*
X191262000Y-132588000D01*
X192621217Y-132588000D01*
X192742358Y-132355974D01*
X192739709Y-132340209D01*
X192485732Y-131812964D01*
X192310155Y-131656093D01*
X192386317Y-131641762D01*
X192602441Y-131502690D01*
X192747431Y-131290490D01*
X192798440Y-131038600D01*
X192798440Y-130160000D01*
X195552560Y-130160000D01*
X195552560Y-131460000D01*
X195596838Y-131695317D01*
X195735910Y-131911441D01*
X195948110Y-132056431D01*
X196200000Y-132107440D01*
X197500000Y-132107440D01*
X197735317Y-132063162D01*
X197951441Y-131924090D01*
X198096431Y-131711890D01*
X198097012Y-131709016D01*
X198630590Y-131709016D01*
X198686271Y-131939611D01*
X199169078Y-132107622D01*
X199679428Y-132078083D01*
X200013729Y-131939611D01*
X200026403Y-131887122D01*
X211457581Y-131887122D01*
X211486336Y-132417440D01*
X211633958Y-132773831D01*
X211869725Y-132835669D01*
X212625395Y-132080000D01*
X212984605Y-132080000D01*
X213740275Y-132835669D01*
X213976042Y-132773831D01*
X214152419Y-132272878D01*
X214123664Y-131742560D01*
X213976042Y-131386169D01*
X213952522Y-131380000D01*
X216457560Y-131380000D01*
X216457560Y-132780000D01*
X216501838Y-133015317D01*
X216640910Y-133231441D01*
X216853110Y-133376431D01*
X217105000Y-133427440D01*
X218505000Y-133427440D01*
X218740317Y-133383162D01*
X218956441Y-133244090D01*
X219101431Y-133031890D01*
X219152440Y-132780000D01*
X219152440Y-132715000D01*
X221598071Y-132715000D01*
X221707304Y-133264151D01*
X222018373Y-133729698D01*
X222400459Y-133985000D01*
X222018373Y-134240302D01*
X221707304Y-134705849D01*
X221598071Y-135255000D01*
X221707304Y-135804151D01*
X222018373Y-136269698D01*
X222483920Y-136580767D01*
X223033071Y-136690000D01*
X224006929Y-136690000D01*
X224556080Y-136580767D01*
X225021627Y-136269698D01*
X225332696Y-135804151D01*
X225441929Y-135255000D01*
X225332696Y-134705849D01*
X225021627Y-134240302D01*
X224639541Y-133985000D01*
X225021627Y-133729698D01*
X225317867Y-133286344D01*
X226984501Y-133286344D01*
X227422790Y-134347086D01*
X228233645Y-135159357D01*
X229293620Y-135599498D01*
X230441344Y-135600499D01*
X231502086Y-135162210D01*
X232075273Y-134590022D01*
X234174584Y-134590022D01*
X234395353Y-134960743D01*
X235367012Y-135354119D01*
X236415247Y-135345713D01*
X237344647Y-134960743D01*
X237565416Y-134590022D01*
X235870000Y-132894605D01*
X234174584Y-134590022D01*
X232075273Y-134590022D01*
X232314357Y-134351355D01*
X232754498Y-133291380D01*
X232755439Y-132212012D01*
X233230881Y-132212012D01*
X233239287Y-133260247D01*
X233624257Y-134189647D01*
X233994978Y-134410416D01*
X235690395Y-132715000D01*
X233994978Y-131019584D01*
X233624257Y-131240353D01*
X233230881Y-132212012D01*
X232755439Y-132212012D01*
X232755499Y-132143656D01*
X232317210Y-131082914D01*
X232074698Y-130839978D01*
X234174584Y-130839978D01*
X235870000Y-132535395D01*
X237565416Y-130839978D01*
X237344647Y-130469257D01*
X236372988Y-130075881D01*
X235324753Y-130084287D01*
X234395353Y-130469257D01*
X234174584Y-130839978D01*
X232074698Y-130839978D01*
X231559651Y-130324032D01*
X232343567Y-130649542D01*
X233391834Y-130650457D01*
X234360658Y-130250147D01*
X235102542Y-129509557D01*
X235504542Y-128541433D01*
X235505457Y-127493166D01*
X235105147Y-126524342D01*
X234364557Y-125782458D01*
X233396433Y-125380458D01*
X232348166Y-125379543D01*
X231379342Y-125779853D01*
X230637458Y-126520443D01*
X230235458Y-127488567D01*
X230234543Y-128536834D01*
X230634853Y-129505658D01*
X231322147Y-130194153D01*
X230446380Y-129830502D01*
X229298656Y-129829501D01*
X228237914Y-130267790D01*
X227425643Y-131078645D01*
X226985502Y-132138620D01*
X226984501Y-133286344D01*
X225317867Y-133286344D01*
X225332696Y-133264151D01*
X225441929Y-132715000D01*
X225332696Y-132165849D01*
X225021627Y-131700302D01*
X224642738Y-131447136D01*
X225074500Y-131099896D01*
X225344367Y-130606819D01*
X225361904Y-130524039D01*
X225239915Y-130302000D01*
X223647000Y-130302000D01*
X223647000Y-130322000D01*
X223393000Y-130322000D01*
X223393000Y-130302000D01*
X221800085Y-130302000D01*
X221678096Y-130524039D01*
X221695633Y-130606819D01*
X221965500Y-131099896D01*
X222397262Y-131447136D01*
X222018373Y-131700302D01*
X221707304Y-132165849D01*
X221598071Y-132715000D01*
X219152440Y-132715000D01*
X219152440Y-131380000D01*
X219108162Y-131144683D01*
X218969090Y-130928559D01*
X218756890Y-130783569D01*
X218505000Y-130732560D01*
X217105000Y-130732560D01*
X216869683Y-130776838D01*
X216653559Y-130915910D01*
X216508569Y-131128110D01*
X216457560Y-131380000D01*
X213952522Y-131380000D01*
X213740275Y-131324331D01*
X212984605Y-132080000D01*
X212625395Y-132080000D01*
X211869725Y-131324331D01*
X211633958Y-131386169D01*
X211457581Y-131887122D01*
X200026403Y-131887122D01*
X200069410Y-131709016D01*
X199350000Y-130989605D01*
X198630590Y-131709016D01*
X198097012Y-131709016D01*
X198147440Y-131460000D01*
X198147440Y-131297615D01*
X198220389Y-131473729D01*
X198450984Y-131529410D01*
X199170395Y-130810000D01*
X199529605Y-130810000D01*
X200249016Y-131529410D01*
X200479611Y-131473729D01*
X200647622Y-130990922D01*
X200618083Y-130480572D01*
X200605171Y-130449398D01*
X204989190Y-130449398D01*
X205199686Y-130958837D01*
X205589113Y-131348944D01*
X206098184Y-131560329D01*
X206649398Y-131560810D01*
X207158837Y-131350314D01*
X207364784Y-131144725D01*
X212049331Y-131144725D01*
X212805000Y-131900395D01*
X213560669Y-131144725D01*
X213498831Y-130908958D01*
X212997878Y-130732581D01*
X212467560Y-130761336D01*
X212111169Y-130908958D01*
X212049331Y-131144725D01*
X207364784Y-131144725D01*
X207548944Y-130960887D01*
X207760329Y-130451816D01*
X207760810Y-129900602D01*
X207729969Y-129825961D01*
X221678096Y-129825961D01*
X221800085Y-130048000D01*
X223393000Y-130048000D01*
X223393000Y-128740000D01*
X223647000Y-128740000D01*
X223647000Y-130048000D01*
X225239915Y-130048000D01*
X225361904Y-129825961D01*
X225344367Y-129743181D01*
X225074500Y-129250104D01*
X224636483Y-128897834D01*
X224097000Y-128740000D01*
X223647000Y-128740000D01*
X223393000Y-128740000D01*
X222943000Y-128740000D01*
X222403517Y-128897834D01*
X221965500Y-129250104D01*
X221695633Y-129743181D01*
X221678096Y-129825961D01*
X207729969Y-129825961D01*
X207550314Y-129391163D01*
X207160887Y-129001056D01*
X206651816Y-128789671D01*
X206100602Y-128789190D01*
X205591163Y-128999686D01*
X205201056Y-129389113D01*
X204989671Y-129898184D01*
X204989190Y-130449398D01*
X200605171Y-130449398D01*
X200479611Y-130146271D01*
X200249016Y-130090590D01*
X199529605Y-130810000D01*
X199170395Y-130810000D01*
X198450984Y-130090590D01*
X198220389Y-130146271D01*
X198147440Y-130355902D01*
X198147440Y-130160000D01*
X198120000Y-130014169D01*
X198120000Y-129910984D01*
X198630590Y-129910984D01*
X199350000Y-130630395D01*
X200069410Y-129910984D01*
X200013729Y-129680389D01*
X199530922Y-129512378D01*
X199020572Y-129541917D01*
X198686271Y-129680389D01*
X198630590Y-129910984D01*
X198120000Y-129910984D01*
X198120000Y-128796052D01*
X198646051Y-128270000D01*
X203199995Y-128270000D01*
X203200000Y-128270001D01*
X203686008Y-128173327D01*
X204098026Y-127898026D01*
X205368023Y-126628028D01*
X205368026Y-126628026D01*
X205643327Y-126216008D01*
X205740000Y-125730000D01*
X205740000Y-124763892D01*
X206107964Y-125175732D01*
X206635209Y-125429709D01*
X206650974Y-125432358D01*
X206883000Y-125311217D01*
X206883000Y-123952000D01*
X206863000Y-123952000D01*
X206863000Y-123698000D01*
X206883000Y-123698000D01*
X206883000Y-122338783D01*
X207137000Y-122338783D01*
X207137000Y-123698000D01*
X207157000Y-123698000D01*
X207157000Y-123952000D01*
X207137000Y-123952000D01*
X207137000Y-125311217D01*
X207369026Y-125432358D01*
X207384791Y-125429709D01*
X207912036Y-125175732D01*
X208068907Y-125000155D01*
X208083238Y-125076317D01*
X208222310Y-125292441D01*
X208434510Y-125437431D01*
X208686400Y-125488440D01*
X210413600Y-125488440D01*
X210648917Y-125444162D01*
X210703726Y-125408893D01*
X216219725Y-125408893D01*
X216460519Y-125991657D01*
X216905997Y-126437914D01*
X217488341Y-126679724D01*
X218118893Y-126680275D01*
X218701657Y-126439481D01*
X218799337Y-126341971D01*
X218930910Y-126546441D01*
X219143110Y-126691431D01*
X219395000Y-126742440D01*
X221295000Y-126742440D01*
X221530317Y-126698162D01*
X221746441Y-126559090D01*
X221891431Y-126346890D01*
X221942440Y-126095000D01*
X221942440Y-124095000D01*
X221941384Y-124089383D01*
X222184769Y-124089383D01*
X222387582Y-124580229D01*
X222762796Y-124956098D01*
X223253287Y-125159768D01*
X223784383Y-125160231D01*
X224275229Y-124957418D01*
X224472716Y-124760275D01*
X232924331Y-124760275D01*
X232986169Y-124996042D01*
X233487122Y-125172419D01*
X234017440Y-125143664D01*
X234373831Y-124996042D01*
X234435669Y-124760275D01*
X233680000Y-124004605D01*
X232924331Y-124760275D01*
X224472716Y-124760275D01*
X224651098Y-124582204D01*
X224854768Y-124091713D01*
X224855168Y-123632122D01*
X232332581Y-123632122D01*
X232361336Y-124162440D01*
X232508958Y-124518831D01*
X232744725Y-124580669D01*
X233500395Y-123825000D01*
X233859605Y-123825000D01*
X234615275Y-124580669D01*
X234851042Y-124518831D01*
X235027419Y-124017878D01*
X234998664Y-123487560D01*
X234851042Y-123131169D01*
X234615275Y-123069331D01*
X233859605Y-123825000D01*
X233500395Y-123825000D01*
X232744725Y-123069331D01*
X232508958Y-123131169D01*
X232332581Y-123632122D01*
X224855168Y-123632122D01*
X224855231Y-123560617D01*
X224652418Y-123069771D01*
X224472686Y-122889725D01*
X232924331Y-122889725D01*
X233680000Y-123645395D01*
X234435669Y-122889725D01*
X234373831Y-122653958D01*
X233872878Y-122477581D01*
X233342560Y-122506336D01*
X232986169Y-122653958D01*
X232924331Y-122889725D01*
X224472686Y-122889725D01*
X224277204Y-122693902D01*
X223786713Y-122490232D01*
X223255617Y-122489769D01*
X222764771Y-122692582D01*
X222388902Y-123067796D01*
X222185232Y-123558287D01*
X222184769Y-124089383D01*
X221941384Y-124089383D01*
X221898162Y-123859683D01*
X221759090Y-123643559D01*
X221546890Y-123498569D01*
X221295000Y-123447560D01*
X219395000Y-123447560D01*
X219159683Y-123491838D01*
X218943559Y-123630910D01*
X218798569Y-123843110D01*
X218797945Y-123846192D01*
X218704003Y-123752086D01*
X218121659Y-123510276D01*
X217491107Y-123509725D01*
X216908343Y-123750519D01*
X216462086Y-124195997D01*
X216220276Y-124778341D01*
X216219725Y-125408893D01*
X210703726Y-125408893D01*
X210865041Y-125305090D01*
X211010031Y-125092890D01*
X211061040Y-124841000D01*
X211061040Y-122809000D01*
X211016762Y-122573683D01*
X210877690Y-122357559D01*
X210665490Y-122212569D01*
X210413600Y-122161560D01*
X208686400Y-122161560D01*
X208451083Y-122205838D01*
X208234959Y-122344910D01*
X208089969Y-122557110D01*
X208070768Y-122651927D01*
X207912036Y-122474268D01*
X207384791Y-122220291D01*
X207369026Y-122217642D01*
X207137000Y-122338783D01*
X206883000Y-122338783D01*
X206650974Y-122217642D01*
X206635209Y-122220291D01*
X206107964Y-122474268D01*
X205736461Y-122890069D01*
X205529670Y-122580585D01*
X205043489Y-122255729D01*
X204470000Y-122141655D01*
X203896511Y-122255729D01*
X203410330Y-122580585D01*
X203203539Y-122890069D01*
X202832036Y-122474268D01*
X202304791Y-122220291D01*
X202289026Y-122217642D01*
X202057000Y-122338783D01*
X202057000Y-123698000D01*
X202077000Y-123698000D01*
X202077000Y-123952000D01*
X202057000Y-123952000D01*
X202057000Y-125311217D01*
X202289026Y-125432358D01*
X202304791Y-125429709D01*
X202832036Y-125175732D01*
X203200000Y-124763892D01*
X203200000Y-125203949D01*
X202673948Y-125730000D01*
X198120000Y-125730000D01*
X197633992Y-125826673D01*
X197221974Y-126101974D01*
X197221972Y-126101977D01*
X195951974Y-127371974D01*
X195676673Y-127783992D01*
X195579999Y-128270000D01*
X195580000Y-128270005D01*
X195580000Y-130024497D01*
X195552560Y-130160000D01*
X192798440Y-130160000D01*
X192798440Y-129311400D01*
X192754162Y-129076083D01*
X192615090Y-128859959D01*
X192402890Y-128714969D01*
X192151000Y-128663960D01*
X190119000Y-128663960D01*
X189883683Y-128708238D01*
X189667559Y-128847310D01*
X189522569Y-129059510D01*
X189471560Y-129311400D01*
X189280000Y-129311400D01*
X189280000Y-125741370D01*
X189745727Y-126868515D01*
X190626847Y-127751174D01*
X191778674Y-128229454D01*
X193025854Y-128230543D01*
X194178515Y-127754273D01*
X195061174Y-126873153D01*
X195539454Y-125721326D01*
X195540543Y-124474146D01*
X195421861Y-124186913D01*
X200444816Y-124186913D01*
X200638046Y-124739320D01*
X201027964Y-125175732D01*
X201555209Y-125429709D01*
X201570974Y-125432358D01*
X201803000Y-125311217D01*
X201803000Y-123952000D01*
X200589076Y-123952000D01*
X200444816Y-124186913D01*
X195421861Y-124186913D01*
X195122782Y-123463087D01*
X200444816Y-123463087D01*
X200589076Y-123698000D01*
X201803000Y-123698000D01*
X201803000Y-122338783D01*
X201570974Y-122217642D01*
X201555209Y-122220291D01*
X201027964Y-122474268D01*
X200638046Y-122910680D01*
X200444816Y-123463087D01*
X195122782Y-123463087D01*
X195064273Y-123321485D01*
X194183153Y-122438826D01*
X193054094Y-121970000D01*
X238075000Y-121970000D01*
X238075000Y-131216090D01*
X238075000Y-131216090D01*
G37*
X238075000Y-131216090D02*
X237745022Y-131019584D01*
X236049605Y-132715000D01*
X237745022Y-134410416D01*
X238075000Y-134213910D01*
X238075000Y-141593630D01*
X237609273Y-140466485D01*
X236728153Y-139583826D01*
X235576326Y-139105546D01*
X234329146Y-139104457D01*
X233176485Y-139580727D01*
X232293826Y-140461847D01*
X231815546Y-141613674D01*
X231814457Y-142860854D01*
X232290727Y-144013515D01*
X233171847Y-144896174D01*
X234300906Y-145365000D01*
X189280000Y-145365000D01*
X189280000Y-143002000D01*
X192875000Y-143002000D01*
X192875000Y-143452000D01*
X193032834Y-143991483D01*
X193385104Y-144429500D01*
X193878181Y-144699367D01*
X193960961Y-144716904D01*
X194183000Y-144594915D01*
X194183000Y-143002000D01*
X192875000Y-143002000D01*
X189280000Y-143002000D01*
X189280000Y-142298000D01*
X192875000Y-142298000D01*
X192875000Y-142748000D01*
X194183000Y-142748000D01*
X194183000Y-141155085D01*
X194437000Y-141155085D01*
X194437000Y-142748000D01*
X194457000Y-142748000D01*
X194457000Y-143002000D01*
X194437000Y-143002000D01*
X194437000Y-144594915D01*
X194659039Y-144716904D01*
X194741819Y-144699367D01*
X195234896Y-144429500D01*
X195582136Y-143997738D01*
X195835302Y-144376627D01*
X196300849Y-144687696D01*
X196850000Y-144796929D01*
X197399151Y-144687696D01*
X197864698Y-144376627D01*
X198120000Y-143994541D01*
X198375302Y-144376627D01*
X198840849Y-144687696D01*
X199390000Y-144796929D01*
X199939151Y-144687696D01*
X200404698Y-144376627D01*
X200715767Y-143911080D01*
X200743030Y-143774016D01*
X203155590Y-143774016D01*
X203211271Y-144004611D01*
X203694078Y-144172622D01*
X204204428Y-144143083D01*
X204538729Y-144004611D01*
X204594410Y-143774016D01*
X203875000Y-143054605D01*
X203155590Y-143774016D01*
X200743030Y-143774016D01*
X200825000Y-143361929D01*
X200825000Y-142694078D01*
X202577378Y-142694078D01*
X202606917Y-143204428D01*
X202745389Y-143538729D01*
X202975984Y-143594410D01*
X203695395Y-142875000D01*
X204054605Y-142875000D01*
X204774016Y-143594410D01*
X205004611Y-143538729D01*
X205077560Y-143329098D01*
X205077560Y-143525000D01*
X205121838Y-143760317D01*
X205260910Y-143976441D01*
X205473110Y-144121431D01*
X205725000Y-144172440D01*
X207025000Y-144172440D01*
X207260317Y-144128162D01*
X207476441Y-143989090D01*
X207621431Y-143776890D01*
X207672440Y-143525000D01*
X207672440Y-142225000D01*
X207628162Y-141989683D01*
X207489090Y-141773559D01*
X207459105Y-141753071D01*
X209385000Y-141753071D01*
X209385000Y-142726929D01*
X209494233Y-143276080D01*
X209805302Y-143741627D01*
X210270849Y-144052696D01*
X210820000Y-144161929D01*
X211369151Y-144052696D01*
X211834698Y-143741627D01*
X212087864Y-143362738D01*
X212435104Y-143794500D01*
X212928181Y-144064367D01*
X213010961Y-144081904D01*
X213233000Y-143959915D01*
X213233000Y-142367000D01*
X213213000Y-142367000D01*
X213213000Y-142113000D01*
X213233000Y-142113000D01*
X213233000Y-140520085D01*
X213487000Y-140520085D01*
X213487000Y-142113000D01*
X213507000Y-142113000D01*
X213507000Y-142367000D01*
X213487000Y-142367000D01*
X213487000Y-143959915D01*
X213709039Y-144081904D01*
X213791819Y-144064367D01*
X214284896Y-143794500D01*
X214632136Y-143362738D01*
X214885302Y-143741627D01*
X215350849Y-144052696D01*
X215900000Y-144161929D01*
X216449151Y-144052696D01*
X216914698Y-143741627D01*
X217225767Y-143276080D01*
X217245079Y-143178991D01*
X218229735Y-143178991D01*
X218462932Y-143743371D01*
X218894357Y-144175551D01*
X219458330Y-144409733D01*
X220068991Y-144410265D01*
X220633371Y-144177068D01*
X220991869Y-143819196D01*
X221136155Y-143963735D01*
X221608276Y-144159777D01*
X222119481Y-144160223D01*
X222591943Y-143965005D01*
X222865160Y-143692266D01*
X223136155Y-143963735D01*
X223608276Y-144159777D01*
X224119481Y-144160223D01*
X224591943Y-143965005D01*
X224865160Y-143692266D01*
X225136155Y-143963735D01*
X225608276Y-144159777D01*
X226119481Y-144160223D01*
X226591943Y-143965005D01*
X226738316Y-143818887D01*
X227094357Y-144175551D01*
X227658330Y-144409733D01*
X228268991Y-144410265D01*
X228833371Y-144177068D01*
X229265551Y-143745643D01*
X229499733Y-143181670D01*
X229500265Y-142571009D01*
X229267068Y-142006629D01*
X228835643Y-141574449D01*
X228271670Y-141340267D01*
X227661009Y-141339735D01*
X227096629Y-141572932D01*
X226738131Y-141930804D01*
X226593845Y-141786265D01*
X226121724Y-141590223D01*
X225610519Y-141589777D01*
X225138057Y-141784995D01*
X224864840Y-142057734D01*
X224593845Y-141786265D01*
X224121724Y-141590223D01*
X223610519Y-141589777D01*
X223138057Y-141784995D01*
X222864840Y-142057734D01*
X222593845Y-141786265D01*
X222121724Y-141590223D01*
X221610519Y-141589777D01*
X221138057Y-141784995D01*
X220991684Y-141931113D01*
X220635643Y-141574449D01*
X220071670Y-141340267D01*
X219461009Y-141339735D01*
X218896629Y-141572932D01*
X218464449Y-142004357D01*
X218230267Y-142568330D01*
X218229735Y-143178991D01*
X217245079Y-143178991D01*
X217335000Y-142726929D01*
X217335000Y-141753071D01*
X217225767Y-141203920D01*
X216914698Y-140738373D01*
X216449151Y-140427304D01*
X215900000Y-140318071D01*
X215350849Y-140427304D01*
X214885302Y-140738373D01*
X214632136Y-141117262D01*
X214284896Y-140685500D01*
X213791819Y-140415633D01*
X213709039Y-140398096D01*
X213487000Y-140520085D01*
X213233000Y-140520085D01*
X213010961Y-140398096D01*
X212928181Y-140415633D01*
X212435104Y-140685500D01*
X212087864Y-141117262D01*
X211834698Y-140738373D01*
X211369151Y-140427304D01*
X210820000Y-140318071D01*
X210270849Y-140427304D01*
X209805302Y-140738373D01*
X209494233Y-141203920D01*
X209385000Y-141753071D01*
X207459105Y-141753071D01*
X207276890Y-141628569D01*
X207025000Y-141577560D01*
X205725000Y-141577560D01*
X205489683Y-141621838D01*
X205273559Y-141760910D01*
X205128569Y-141973110D01*
X205077560Y-142225000D01*
X205077560Y-142387385D01*
X205004611Y-142211271D01*
X204774016Y-142155590D01*
X204054605Y-142875000D01*
X203695395Y-142875000D01*
X202975984Y-142155590D01*
X202745389Y-142211271D01*
X202577378Y-142694078D01*
X200825000Y-142694078D01*
X200825000Y-142388071D01*
X200743031Y-141975984D01*
X203155590Y-141975984D01*
X203875000Y-142695395D01*
X204594410Y-141975984D01*
X204538729Y-141745389D01*
X204055922Y-141577378D01*
X203545572Y-141606917D01*
X203211271Y-141745389D01*
X203155590Y-141975984D01*
X200743031Y-141975984D01*
X200715767Y-141838920D01*
X200404698Y-141373373D01*
X199939151Y-141062304D01*
X199390000Y-140953071D01*
X198840849Y-141062304D01*
X198375302Y-141373373D01*
X198120000Y-141755459D01*
X197864698Y-141373373D01*
X197399151Y-141062304D01*
X196850000Y-140953071D01*
X196300849Y-141062304D01*
X195835302Y-141373373D01*
X195582136Y-141752262D01*
X195234896Y-141320500D01*
X194741819Y-141050633D01*
X194659039Y-141033096D01*
X194437000Y-141155085D01*
X194183000Y-141155085D01*
X193960961Y-141033096D01*
X193878181Y-141050633D01*
X193385104Y-141320500D01*
X193032834Y-141758517D01*
X192875000Y-142298000D01*
X189280000Y-142298000D01*
X189280000Y-138154026D01*
X189527642Y-138154026D01*
X189530291Y-138169791D01*
X189784268Y-138697036D01*
X190220680Y-139086954D01*
X190773087Y-139280184D01*
X191008000Y-139135924D01*
X191008000Y-137922000D01*
X191262000Y-137922000D01*
X191262000Y-139135924D01*
X191496913Y-139280184D01*
X192049320Y-139086954D01*
X192485732Y-138697036D01*
X192739709Y-138169791D01*
X192742358Y-138154026D01*
X192709743Y-138091556D01*
X206794592Y-138091556D01*
X207020138Y-138637417D01*
X207437406Y-139055414D01*
X207982873Y-139281912D01*
X208573496Y-139282428D01*
X209119357Y-139056882D01*
X209537354Y-138639614D01*
X209763852Y-138094147D01*
X209764368Y-137503524D01*
X209538822Y-136957663D01*
X209529087Y-136947910D01*
X216942410Y-136947910D01*
X216942410Y-138647170D01*
X216986688Y-138882487D01*
X217125760Y-139098611D01*
X217337960Y-139243601D01*
X217589850Y-139294610D01*
X219289110Y-139294610D01*
X219524427Y-139250332D01*
X219740551Y-139111260D01*
X219885541Y-138899060D01*
X219936550Y-138647170D01*
X219936550Y-136947910D01*
X219892272Y-136712593D01*
X219753200Y-136496469D01*
X219541000Y-136351479D01*
X219289110Y-136300470D01*
X217589850Y-136300470D01*
X217354533Y-136344748D01*
X217138409Y-136483820D01*
X216993419Y-136696020D01*
X216942410Y-136947910D01*
X209529087Y-136947910D01*
X209121554Y-136539666D01*
X208576087Y-136313168D01*
X207985464Y-136312652D01*
X207439603Y-136538198D01*
X207021606Y-136955466D01*
X206795108Y-137500933D01*
X206794592Y-138091556D01*
X192709743Y-138091556D01*
X192621217Y-137922000D01*
X191262000Y-137922000D01*
X191008000Y-137922000D01*
X189648783Y-137922000D01*
X189527642Y-138154026D01*
X189280000Y-138154026D01*
X189280000Y-135255000D01*
X189451655Y-135255000D01*
X189565729Y-135828489D01*
X189890585Y-136314670D01*
X190200069Y-136521461D01*
X189784268Y-136892964D01*
X189530291Y-137420209D01*
X189527642Y-137435974D01*
X189648783Y-137668000D01*
X191008000Y-137668000D01*
X191008000Y-137648000D01*
X191262000Y-137648000D01*
X191262000Y-137668000D01*
X192621217Y-137668000D01*
X192742358Y-137435974D01*
X192739709Y-137420209D01*
X192485732Y-136892964D01*
X192069931Y-136521461D01*
X192379415Y-136314670D01*
X192481167Y-136162386D01*
X196124592Y-136162386D01*
X196333544Y-136668089D01*
X196720116Y-137055336D01*
X197225454Y-137265171D01*
X197772626Y-137265648D01*
X198278329Y-137056696D01*
X198480810Y-136854567D01*
X198716798Y-136854567D01*
X198783609Y-137094516D01*
X199299223Y-137277652D01*
X199845672Y-137249531D01*
X200219911Y-137094516D01*
X200286722Y-136854567D01*
X199501760Y-136069605D01*
X198716798Y-136854567D01*
X198480810Y-136854567D01*
X198665576Y-136670124D01*
X198753305Y-136458850D01*
X199322155Y-135890000D01*
X199681365Y-135890000D01*
X200466327Y-136674962D01*
X200706276Y-136608151D01*
X200889412Y-136092537D01*
X200861291Y-135546088D01*
X200706276Y-135171849D01*
X200466327Y-135105038D01*
X199681365Y-135890000D01*
X199322155Y-135890000D01*
X198753453Y-135321298D01*
X198666936Y-135111911D01*
X198480784Y-134925433D01*
X198716798Y-134925433D01*
X199501760Y-135710395D01*
X200255225Y-134956930D01*
X205582675Y-134956930D01*
X205650735Y-135197931D01*
X206170034Y-135382767D01*
X206720538Y-135354805D01*
X207099265Y-135197931D01*
X207167325Y-134956930D01*
X206375000Y-134164605D01*
X205582675Y-134956930D01*
X200255225Y-134956930D01*
X200286722Y-134925433D01*
X200219911Y-134685484D01*
X199704297Y-134502348D01*
X199157848Y-134530469D01*
X198783609Y-134685484D01*
X198716798Y-134925433D01*
X198480784Y-134925433D01*
X198280364Y-134724664D01*
X197775026Y-134514829D01*
X197227854Y-134514352D01*
X196722151Y-134723304D01*
X196334904Y-135109876D01*
X196125069Y-135615214D01*
X196124592Y-136162386D01*
X192481167Y-136162386D01*
X192704271Y-135828489D01*
X192818345Y-135255000D01*
X192704271Y-134681511D01*
X192379415Y-134195330D01*
X192069931Y-133988539D01*
X192303298Y-133780034D01*
X204977233Y-133780034D01*
X205005195Y-134330538D01*
X205162069Y-134709265D01*
X205403070Y-134777325D01*
X206195395Y-133985000D01*
X206554605Y-133985000D01*
X207346930Y-134777325D01*
X207587931Y-134709265D01*
X207772767Y-134189966D01*
X207744805Y-133639462D01*
X207587931Y-133260735D01*
X207346930Y-133192675D01*
X206554605Y-133985000D01*
X206195395Y-133985000D01*
X205403070Y-133192675D01*
X205162069Y-133260735D01*
X204977233Y-133780034D01*
X192303298Y-133780034D01*
X192485732Y-133617036D01*
X192739709Y-133089791D01*
X192742358Y-133074026D01*
X192710533Y-133013070D01*
X205582675Y-133013070D01*
X206375000Y-133805395D01*
X207165120Y-133015275D01*
X212049331Y-133015275D01*
X212111169Y-133251042D01*
X212612122Y-133427419D01*
X213142440Y-133398664D01*
X213498831Y-133251042D01*
X213560669Y-133015275D01*
X212805000Y-132259605D01*
X212049331Y-133015275D01*
X207165120Y-133015275D01*
X207167325Y-133013070D01*
X207099265Y-132772069D01*
X206579966Y-132587233D01*
X206029462Y-132615195D01*
X205650735Y-132772069D01*
X205582675Y-133013070D01*
X192710533Y-133013070D01*
X192621217Y-132842000D01*
X191262000Y-132842000D01*
X191262000Y-132862000D01*
X191008000Y-132862000D01*
X191008000Y-132842000D01*
X189648783Y-132842000D01*
X189527642Y-133074026D01*
X189530291Y-133089791D01*
X189784268Y-133617036D01*
X190200069Y-133988539D01*
X189890585Y-134195330D01*
X189565729Y-134681511D01*
X189451655Y-135255000D01*
X189280000Y-135255000D01*
X189280000Y-129311400D01*
X189471560Y-129311400D01*
X189471560Y-131038600D01*
X189515838Y-131273917D01*
X189654910Y-131490041D01*
X189867110Y-131635031D01*
X189961927Y-131654232D01*
X189784268Y-131812964D01*
X189530291Y-132340209D01*
X189527642Y-132355974D01*
X189648783Y-132588000D01*
X191008000Y-132588000D01*
X191008000Y-132568000D01*
X191262000Y-132568000D01*
X191262000Y-132588000D01*
X192621217Y-132588000D01*
X192742358Y-132355974D01*
X192739709Y-132340209D01*
X192485732Y-131812964D01*
X192310155Y-131656093D01*
X192386317Y-131641762D01*
X192602441Y-131502690D01*
X192747431Y-131290490D01*
X192798440Y-131038600D01*
X192798440Y-130160000D01*
X195552560Y-130160000D01*
X195552560Y-131460000D01*
X195596838Y-131695317D01*
X195735910Y-131911441D01*
X195948110Y-132056431D01*
X196200000Y-132107440D01*
X197500000Y-132107440D01*
X197735317Y-132063162D01*
X197951441Y-131924090D01*
X198096431Y-131711890D01*
X198097012Y-131709016D01*
X198630590Y-131709016D01*
X198686271Y-131939611D01*
X199169078Y-132107622D01*
X199679428Y-132078083D01*
X200013729Y-131939611D01*
X200026403Y-131887122D01*
X211457581Y-131887122D01*
X211486336Y-132417440D01*
X211633958Y-132773831D01*
X211869725Y-132835669D01*
X212625395Y-132080000D01*
X212984605Y-132080000D01*
X213740275Y-132835669D01*
X213976042Y-132773831D01*
X214152419Y-132272878D01*
X214123664Y-131742560D01*
X213976042Y-131386169D01*
X213952522Y-131380000D01*
X216457560Y-131380000D01*
X216457560Y-132780000D01*
X216501838Y-133015317D01*
X216640910Y-133231441D01*
X216853110Y-133376431D01*
X217105000Y-133427440D01*
X218505000Y-133427440D01*
X218740317Y-133383162D01*
X218956441Y-133244090D01*
X219101431Y-133031890D01*
X219152440Y-132780000D01*
X219152440Y-132715000D01*
X221598071Y-132715000D01*
X221707304Y-133264151D01*
X222018373Y-133729698D01*
X222400459Y-133985000D01*
X222018373Y-134240302D01*
X221707304Y-134705849D01*
X221598071Y-135255000D01*
X221707304Y-135804151D01*
X222018373Y-136269698D01*
X222483920Y-136580767D01*
X223033071Y-136690000D01*
X224006929Y-136690000D01*
X224556080Y-136580767D01*
X225021627Y-136269698D01*
X225332696Y-135804151D01*
X225441929Y-135255000D01*
X225332696Y-134705849D01*
X225021627Y-134240302D01*
X224639541Y-133985000D01*
X225021627Y-133729698D01*
X225317867Y-133286344D01*
X226984501Y-133286344D01*
X227422790Y-134347086D01*
X228233645Y-135159357D01*
X229293620Y-135599498D01*
X230441344Y-135600499D01*
X231502086Y-135162210D01*
X232075273Y-134590022D01*
X234174584Y-134590022D01*
X234395353Y-134960743D01*
X235367012Y-135354119D01*
X236415247Y-135345713D01*
X237344647Y-134960743D01*
X237565416Y-134590022D01*
X235870000Y-132894605D01*
X234174584Y-134590022D01*
X232075273Y-134590022D01*
X232314357Y-134351355D01*
X232754498Y-133291380D01*
X232755439Y-132212012D01*
X233230881Y-132212012D01*
X233239287Y-133260247D01*
X233624257Y-134189647D01*
X233994978Y-134410416D01*
X235690395Y-132715000D01*
X233994978Y-131019584D01*
X233624257Y-131240353D01*
X233230881Y-132212012D01*
X232755439Y-132212012D01*
X232755499Y-132143656D01*
X232317210Y-131082914D01*
X232074698Y-130839978D01*
X234174584Y-130839978D01*
X235870000Y-132535395D01*
X237565416Y-130839978D01*
X237344647Y-130469257D01*
X236372988Y-130075881D01*
X235324753Y-130084287D01*
X234395353Y-130469257D01*
X234174584Y-130839978D01*
X232074698Y-130839978D01*
X231559651Y-130324032D01*
X232343567Y-130649542D01*
X233391834Y-130650457D01*
X234360658Y-130250147D01*
X235102542Y-129509557D01*
X235504542Y-128541433D01*
X235505457Y-127493166D01*
X235105147Y-126524342D01*
X234364557Y-125782458D01*
X233396433Y-125380458D01*
X232348166Y-125379543D01*
X231379342Y-125779853D01*
X230637458Y-126520443D01*
X230235458Y-127488567D01*
X230234543Y-128536834D01*
X230634853Y-129505658D01*
X231322147Y-130194153D01*
X230446380Y-129830502D01*
X229298656Y-129829501D01*
X228237914Y-130267790D01*
X227425643Y-131078645D01*
X226985502Y-132138620D01*
X226984501Y-133286344D01*
X225317867Y-133286344D01*
X225332696Y-133264151D01*
X225441929Y-132715000D01*
X225332696Y-132165849D01*
X225021627Y-131700302D01*
X224642738Y-131447136D01*
X225074500Y-131099896D01*
X225344367Y-130606819D01*
X225361904Y-130524039D01*
X225239915Y-130302000D01*
X223647000Y-130302000D01*
X223647000Y-130322000D01*
X223393000Y-130322000D01*
X223393000Y-130302000D01*
X221800085Y-130302000D01*
X221678096Y-130524039D01*
X221695633Y-130606819D01*
X221965500Y-131099896D01*
X222397262Y-131447136D01*
X222018373Y-131700302D01*
X221707304Y-132165849D01*
X221598071Y-132715000D01*
X219152440Y-132715000D01*
X219152440Y-131380000D01*
X219108162Y-131144683D01*
X218969090Y-130928559D01*
X218756890Y-130783569D01*
X218505000Y-130732560D01*
X217105000Y-130732560D01*
X216869683Y-130776838D01*
X216653559Y-130915910D01*
X216508569Y-131128110D01*
X216457560Y-131380000D01*
X213952522Y-131380000D01*
X213740275Y-131324331D01*
X212984605Y-132080000D01*
X212625395Y-132080000D01*
X211869725Y-131324331D01*
X211633958Y-131386169D01*
X211457581Y-131887122D01*
X200026403Y-131887122D01*
X200069410Y-131709016D01*
X199350000Y-130989605D01*
X198630590Y-131709016D01*
X198097012Y-131709016D01*
X198147440Y-131460000D01*
X198147440Y-131297615D01*
X198220389Y-131473729D01*
X198450984Y-131529410D01*
X199170395Y-130810000D01*
X199529605Y-130810000D01*
X200249016Y-131529410D01*
X200479611Y-131473729D01*
X200647622Y-130990922D01*
X200618083Y-130480572D01*
X200605171Y-130449398D01*
X204989190Y-130449398D01*
X205199686Y-130958837D01*
X205589113Y-131348944D01*
X206098184Y-131560329D01*
X206649398Y-131560810D01*
X207158837Y-131350314D01*
X207364784Y-131144725D01*
X212049331Y-131144725D01*
X212805000Y-131900395D01*
X213560669Y-131144725D01*
X213498831Y-130908958D01*
X212997878Y-130732581D01*
X212467560Y-130761336D01*
X212111169Y-130908958D01*
X212049331Y-131144725D01*
X207364784Y-131144725D01*
X207548944Y-130960887D01*
X207760329Y-130451816D01*
X207760810Y-129900602D01*
X207729969Y-129825961D01*
X221678096Y-129825961D01*
X221800085Y-130048000D01*
X223393000Y-130048000D01*
X223393000Y-128740000D01*
X223647000Y-128740000D01*
X223647000Y-130048000D01*
X225239915Y-130048000D01*
X225361904Y-129825961D01*
X225344367Y-129743181D01*
X225074500Y-129250104D01*
X224636483Y-128897834D01*
X224097000Y-128740000D01*
X223647000Y-128740000D01*
X223393000Y-128740000D01*
X222943000Y-128740000D01*
X222403517Y-128897834D01*
X221965500Y-129250104D01*
X221695633Y-129743181D01*
X221678096Y-129825961D01*
X207729969Y-129825961D01*
X207550314Y-129391163D01*
X207160887Y-129001056D01*
X206651816Y-128789671D01*
X206100602Y-128789190D01*
X205591163Y-128999686D01*
X205201056Y-129389113D01*
X204989671Y-129898184D01*
X204989190Y-130449398D01*
X200605171Y-130449398D01*
X200479611Y-130146271D01*
X200249016Y-130090590D01*
X199529605Y-130810000D01*
X199170395Y-130810000D01*
X198450984Y-130090590D01*
X198220389Y-130146271D01*
X198147440Y-130355902D01*
X198147440Y-130160000D01*
X198120000Y-130014169D01*
X198120000Y-129910984D01*
X198630590Y-129910984D01*
X199350000Y-130630395D01*
X200069410Y-129910984D01*
X200013729Y-129680389D01*
X199530922Y-129512378D01*
X199020572Y-129541917D01*
X198686271Y-129680389D01*
X198630590Y-129910984D01*
X198120000Y-129910984D01*
X198120000Y-128796052D01*
X198646051Y-128270000D01*
X203199995Y-128270000D01*
X203200000Y-128270001D01*
X203686008Y-128173327D01*
X204098026Y-127898026D01*
X205368023Y-126628028D01*
X205368026Y-126628026D01*
X205643327Y-126216008D01*
X205740000Y-125730000D01*
X205740000Y-124763892D01*
X206107964Y-125175732D01*
X206635209Y-125429709D01*
X206650974Y-125432358D01*
X206883000Y-125311217D01*
X206883000Y-123952000D01*
X206863000Y-123952000D01*
X206863000Y-123698000D01*
X206883000Y-123698000D01*
X206883000Y-122338783D01*
X207137000Y-122338783D01*
X207137000Y-123698000D01*
X207157000Y-123698000D01*
X207157000Y-123952000D01*
X207137000Y-123952000D01*
X207137000Y-125311217D01*
X207369026Y-125432358D01*
X207384791Y-125429709D01*
X207912036Y-125175732D01*
X208068907Y-125000155D01*
X208083238Y-125076317D01*
X208222310Y-125292441D01*
X208434510Y-125437431D01*
X208686400Y-125488440D01*
X210413600Y-125488440D01*
X210648917Y-125444162D01*
X210703726Y-125408893D01*
X216219725Y-125408893D01*
X216460519Y-125991657D01*
X216905997Y-126437914D01*
X217488341Y-126679724D01*
X218118893Y-126680275D01*
X218701657Y-126439481D01*
X218799337Y-126341971D01*
X218930910Y-126546441D01*
X219143110Y-126691431D01*
X219395000Y-126742440D01*
X221295000Y-126742440D01*
X221530317Y-126698162D01*
X221746441Y-126559090D01*
X221891431Y-126346890D01*
X221942440Y-126095000D01*
X221942440Y-124095000D01*
X221941384Y-124089383D01*
X222184769Y-124089383D01*
X222387582Y-124580229D01*
X222762796Y-124956098D01*
X223253287Y-125159768D01*
X223784383Y-125160231D01*
X224275229Y-124957418D01*
X224472716Y-124760275D01*
X232924331Y-124760275D01*
X232986169Y-124996042D01*
X233487122Y-125172419D01*
X234017440Y-125143664D01*
X234373831Y-124996042D01*
X234435669Y-124760275D01*
X233680000Y-124004605D01*
X232924331Y-124760275D01*
X224472716Y-124760275D01*
X224651098Y-124582204D01*
X224854768Y-124091713D01*
X224855168Y-123632122D01*
X232332581Y-123632122D01*
X232361336Y-124162440D01*
X232508958Y-124518831D01*
X232744725Y-124580669D01*
X233500395Y-123825000D01*
X233859605Y-123825000D01*
X234615275Y-124580669D01*
X234851042Y-124518831D01*
X235027419Y-124017878D01*
X234998664Y-123487560D01*
X234851042Y-123131169D01*
X234615275Y-123069331D01*
X233859605Y-123825000D01*
X233500395Y-123825000D01*
X232744725Y-123069331D01*
X232508958Y-123131169D01*
X232332581Y-123632122D01*
X224855168Y-123632122D01*
X224855231Y-123560617D01*
X224652418Y-123069771D01*
X224472686Y-122889725D01*
X232924331Y-122889725D01*
X233680000Y-123645395D01*
X234435669Y-122889725D01*
X234373831Y-122653958D01*
X233872878Y-122477581D01*
X233342560Y-122506336D01*
X232986169Y-122653958D01*
X232924331Y-122889725D01*
X224472686Y-122889725D01*
X224277204Y-122693902D01*
X223786713Y-122490232D01*
X223255617Y-122489769D01*
X222764771Y-122692582D01*
X222388902Y-123067796D01*
X222185232Y-123558287D01*
X222184769Y-124089383D01*
X221941384Y-124089383D01*
X221898162Y-123859683D01*
X221759090Y-123643559D01*
X221546890Y-123498569D01*
X221295000Y-123447560D01*
X219395000Y-123447560D01*
X219159683Y-123491838D01*
X218943559Y-123630910D01*
X218798569Y-123843110D01*
X218797945Y-123846192D01*
X218704003Y-123752086D01*
X218121659Y-123510276D01*
X217491107Y-123509725D01*
X216908343Y-123750519D01*
X216462086Y-124195997D01*
X216220276Y-124778341D01*
X216219725Y-125408893D01*
X210703726Y-125408893D01*
X210865041Y-125305090D01*
X211010031Y-125092890D01*
X211061040Y-124841000D01*
X211061040Y-122809000D01*
X211016762Y-122573683D01*
X210877690Y-122357559D01*
X210665490Y-122212569D01*
X210413600Y-122161560D01*
X208686400Y-122161560D01*
X208451083Y-122205838D01*
X208234959Y-122344910D01*
X208089969Y-122557110D01*
X208070768Y-122651927D01*
X207912036Y-122474268D01*
X207384791Y-122220291D01*
X207369026Y-122217642D01*
X207137000Y-122338783D01*
X206883000Y-122338783D01*
X206650974Y-122217642D01*
X206635209Y-122220291D01*
X206107964Y-122474268D01*
X205736461Y-122890069D01*
X205529670Y-122580585D01*
X205043489Y-122255729D01*
X204470000Y-122141655D01*
X203896511Y-122255729D01*
X203410330Y-122580585D01*
X203203539Y-122890069D01*
X202832036Y-122474268D01*
X202304791Y-122220291D01*
X202289026Y-122217642D01*
X202057000Y-122338783D01*
X202057000Y-123698000D01*
X202077000Y-123698000D01*
X202077000Y-123952000D01*
X202057000Y-123952000D01*
X202057000Y-125311217D01*
X202289026Y-125432358D01*
X202304791Y-125429709D01*
X202832036Y-125175732D01*
X203200000Y-124763892D01*
X203200000Y-125203949D01*
X202673948Y-125730000D01*
X198120000Y-125730000D01*
X197633992Y-125826673D01*
X197221974Y-126101974D01*
X197221972Y-126101977D01*
X195951974Y-127371974D01*
X195676673Y-127783992D01*
X195579999Y-128270000D01*
X195580000Y-128270005D01*
X195580000Y-130024497D01*
X195552560Y-130160000D01*
X192798440Y-130160000D01*
X192798440Y-129311400D01*
X192754162Y-129076083D01*
X192615090Y-128859959D01*
X192402890Y-128714969D01*
X192151000Y-128663960D01*
X190119000Y-128663960D01*
X189883683Y-128708238D01*
X189667559Y-128847310D01*
X189522569Y-129059510D01*
X189471560Y-129311400D01*
X189280000Y-129311400D01*
X189280000Y-125741370D01*
X189745727Y-126868515D01*
X190626847Y-127751174D01*
X191778674Y-128229454D01*
X193025854Y-128230543D01*
X194178515Y-127754273D01*
X195061174Y-126873153D01*
X195539454Y-125721326D01*
X195540543Y-124474146D01*
X195421861Y-124186913D01*
X200444816Y-124186913D01*
X200638046Y-124739320D01*
X201027964Y-125175732D01*
X201555209Y-125429709D01*
X201570974Y-125432358D01*
X201803000Y-125311217D01*
X201803000Y-123952000D01*
X200589076Y-123952000D01*
X200444816Y-124186913D01*
X195421861Y-124186913D01*
X195122782Y-123463087D01*
X200444816Y-123463087D01*
X200589076Y-123698000D01*
X201803000Y-123698000D01*
X201803000Y-122338783D01*
X201570974Y-122217642D01*
X201555209Y-122220291D01*
X201027964Y-122474268D01*
X200638046Y-122910680D01*
X200444816Y-123463087D01*
X195122782Y-123463087D01*
X195064273Y-123321485D01*
X194183153Y-122438826D01*
X193054094Y-121970000D01*
X238075000Y-121970000D01*
X238075000Y-131216090D01*
M02*
