G04 #@! TF.FileFunction,Soldermask,Top*
%FSLAX46Y46*%
G04 Gerber Fmt 4.6, Leading zero omitted, Abs format (unit mm)*
G04 Created by KiCad (PCBNEW (2015-08-16 BZR 6097, Git b384c94)-product) date 11/6/2015 8:34:41 PM*
%MOMM*%
G01*
G04 APERTURE LIST*
%ADD10C,0.100000*%
%ADD11C,5.000000*%
%ADD12C,4.500000*%
%ADD13C,4.000000*%
%ADD14R,1.900000X2.000000*%
%ADD15C,1.900000*%
%ADD16C,1.300000*%
%ADD17C,1.800000*%
%ADD18R,1.400000X1.400000*%
%ADD19C,1.400000*%
%ADD20R,1.300000X1.300000*%
%ADD21C,1.699260*%
%ADD22R,1.699260X1.699260*%
%ADD23O,2.500000X1.600000*%
%ADD24O,1.600000X2.500000*%
%ADD25C,1.501140*%
%ADD26C,1.480820*%
%ADD27R,2.032000X1.727200*%
%ADD28O,2.032000X1.727200*%
%ADD29R,1.727200X2.032000*%
%ADD30O,1.727200X2.032000*%
G04 APERTURE END LIST*
D10*
D11*
X192405000Y-125095000D03*
X234950000Y-142240000D03*
D12*
X229870000Y-132715000D03*
D13*
X235870000Y-132715000D03*
X232870000Y-128015000D03*
D14*
X220345000Y-125095000D03*
D15*
X217805000Y-125095000D03*
D16*
X221865000Y-142875000D03*
X225865000Y-142875000D03*
D17*
X219765000Y-142875000D03*
X227965000Y-142875000D03*
D16*
X223865000Y-142875000D03*
D18*
X217805000Y-132080000D03*
D19*
X212805000Y-132080000D03*
D20*
X206375000Y-142875000D03*
D16*
X203875000Y-142875000D03*
D21*
X208279480Y-137797540D03*
D22*
X218439480Y-137797540D03*
D23*
X223520000Y-132715000D03*
X223520000Y-130175000D03*
X223520000Y-135255000D03*
D24*
X213360000Y-142240000D03*
X215900000Y-142240000D03*
X210820000Y-142240000D03*
D25*
X206375000Y-133985000D03*
X206375000Y-130175000D03*
D19*
X223520000Y-123825000D03*
X233680000Y-123825000D03*
D26*
X197500240Y-135890000D03*
X199501760Y-135890000D03*
D20*
X196850000Y-130810000D03*
D16*
X199350000Y-130810000D03*
D27*
X191135000Y-130175000D03*
D28*
X191135000Y-132715000D03*
X191135000Y-135255000D03*
X191135000Y-137795000D03*
D29*
X209550000Y-123825000D03*
D30*
X207010000Y-123825000D03*
X204470000Y-123825000D03*
X201930000Y-123825000D03*
D24*
X196850000Y-142875000D03*
X194310000Y-142875000D03*
X199390000Y-142875000D03*
M02*
