G04 #@! TF.FileFunction,Legend,Bot*
%FSLAX46Y46*%
G04 Gerber Fmt 4.6, Leading zero omitted, Abs format (unit mm)*
G04 Created by KiCad (PCBNEW (2015-08-16 BZR 6097, Git b384c94)-product) date 11/6/2015 8:34:41 PM*
%MOMM*%
G01*
G04 APERTURE LIST*
%ADD10C,0.100000*%
%ADD11C,0.200000*%
G04 APERTURE END LIST*
D10*
D11*
X216575000Y-126977857D02*
X216803571Y-126977857D01*
X216917857Y-127035000D01*
X216975000Y-127092143D01*
X217089286Y-127263571D01*
X217146429Y-127492143D01*
X217146429Y-127949286D01*
X217089286Y-128063571D01*
X217032143Y-128120714D01*
X216917857Y-128177857D01*
X216689286Y-128177857D01*
X216575000Y-128120714D01*
X216517857Y-128063571D01*
X216460714Y-127949286D01*
X216460714Y-127663571D01*
X216517857Y-127549286D01*
X216575000Y-127492143D01*
X216689286Y-127435000D01*
X216917857Y-127435000D01*
X217032143Y-127492143D01*
X217089286Y-127549286D01*
X217146429Y-127663571D01*
X215375000Y-126977857D02*
X215946429Y-126977857D01*
X216003572Y-127549286D01*
X215946429Y-127492143D01*
X215832143Y-127435000D01*
X215546429Y-127435000D01*
X215432143Y-127492143D01*
X215375000Y-127549286D01*
X215317857Y-127663571D01*
X215317857Y-127949286D01*
X215375000Y-128063571D01*
X215432143Y-128120714D01*
X215546429Y-128177857D01*
X215832143Y-128177857D01*
X215946429Y-128120714D01*
X216003572Y-128063571D01*
X214575000Y-126977857D02*
X214460715Y-126977857D01*
X214346429Y-127035000D01*
X214289286Y-127092143D01*
X214232143Y-127206429D01*
X214175000Y-127435000D01*
X214175000Y-127720714D01*
X214232143Y-127949286D01*
X214289286Y-128063571D01*
X214346429Y-128120714D01*
X214460715Y-128177857D01*
X214575000Y-128177857D01*
X214689286Y-128120714D01*
X214746429Y-128063571D01*
X214803572Y-127949286D01*
X214860715Y-127720714D01*
X214860715Y-127435000D01*
X214803572Y-127206429D01*
X214746429Y-127092143D01*
X214689286Y-127035000D01*
X214575000Y-126977857D01*
X213717858Y-127092143D02*
X213660715Y-127035000D01*
X213546429Y-126977857D01*
X213260715Y-126977857D01*
X213146429Y-127035000D01*
X213089286Y-127092143D01*
X213032143Y-127206429D01*
X213032143Y-127320714D01*
X213089286Y-127492143D01*
X213775000Y-128177857D01*
X213032143Y-128177857D01*
X212517858Y-128063571D02*
X212460715Y-128120714D01*
X212517858Y-128177857D01*
X212575001Y-128120714D01*
X212517858Y-128063571D01*
X212517858Y-128177857D01*
X211946429Y-128177857D02*
X211946429Y-127377857D01*
X211946429Y-126977857D02*
X212003572Y-127035000D01*
X211946429Y-127092143D01*
X211889286Y-127035000D01*
X211946429Y-126977857D01*
X211946429Y-127092143D01*
X211203571Y-128177857D02*
X211317857Y-128120714D01*
X211375000Y-128063571D01*
X211432143Y-127949286D01*
X211432143Y-127606429D01*
X211375000Y-127492143D01*
X211317857Y-127435000D01*
X211203571Y-127377857D01*
X211032143Y-127377857D01*
X210917857Y-127435000D01*
X210860714Y-127492143D01*
X210803571Y-127606429D01*
X210803571Y-127949286D01*
X210860714Y-128063571D01*
X210917857Y-128120714D01*
X211032143Y-128177857D01*
X211203571Y-128177857D01*
X209375000Y-128177857D02*
X209375000Y-126977857D01*
X208917857Y-126977857D01*
X208803571Y-127035000D01*
X208746428Y-127092143D01*
X208689285Y-127206429D01*
X208689285Y-127377857D01*
X208746428Y-127492143D01*
X208803571Y-127549286D01*
X208917857Y-127606429D01*
X209375000Y-127606429D01*
X208003571Y-128177857D02*
X208117857Y-128120714D01*
X208175000Y-128063571D01*
X208232143Y-127949286D01*
X208232143Y-127606429D01*
X208175000Y-127492143D01*
X208117857Y-127435000D01*
X208003571Y-127377857D01*
X207832143Y-127377857D01*
X207717857Y-127435000D01*
X207660714Y-127492143D01*
X207603571Y-127606429D01*
X207603571Y-127949286D01*
X207660714Y-128063571D01*
X207717857Y-128120714D01*
X207832143Y-128177857D01*
X208003571Y-128177857D01*
X207203571Y-127377857D02*
X206975000Y-128177857D01*
X206746429Y-127606429D01*
X206517857Y-128177857D01*
X206289286Y-127377857D01*
X205375000Y-128120714D02*
X205489286Y-128177857D01*
X205717857Y-128177857D01*
X205832143Y-128120714D01*
X205889286Y-128006429D01*
X205889286Y-127549286D01*
X205832143Y-127435000D01*
X205717857Y-127377857D01*
X205489286Y-127377857D01*
X205375000Y-127435000D01*
X205317857Y-127549286D01*
X205317857Y-127663571D01*
X205889286Y-127777857D01*
X204803572Y-128177857D02*
X204803572Y-127377857D01*
X204803572Y-127606429D02*
X204746429Y-127492143D01*
X204689286Y-127435000D01*
X204575000Y-127377857D01*
X204460715Y-127377857D01*
X203146429Y-128177857D02*
X203146429Y-126977857D01*
X202689286Y-126977857D01*
X202575000Y-127035000D01*
X202517857Y-127092143D01*
X202460714Y-127206429D01*
X202460714Y-127377857D01*
X202517857Y-127492143D01*
X202575000Y-127549286D01*
X202689286Y-127606429D01*
X203146429Y-127606429D01*
X201775000Y-128177857D02*
X201889286Y-128120714D01*
X201946429Y-128063571D01*
X202003572Y-127949286D01*
X202003572Y-127606429D01*
X201946429Y-127492143D01*
X201889286Y-127435000D01*
X201775000Y-127377857D01*
X201603572Y-127377857D01*
X201489286Y-127435000D01*
X201432143Y-127492143D01*
X201375000Y-127606429D01*
X201375000Y-127949286D01*
X201432143Y-128063571D01*
X201489286Y-128120714D01*
X201603572Y-128177857D01*
X201775000Y-128177857D01*
X200346429Y-128177857D02*
X200346429Y-126977857D01*
X200346429Y-128120714D02*
X200460715Y-128177857D01*
X200689286Y-128177857D01*
X200803572Y-128120714D01*
X200860715Y-128063571D01*
X200917858Y-127949286D01*
X200917858Y-127606429D01*
X200860715Y-127492143D01*
X200803572Y-127435000D01*
X200689286Y-127377857D01*
X200460715Y-127377857D01*
X200346429Y-127435000D01*
X198975000Y-127377857D02*
X198689286Y-128177857D01*
X198403572Y-127377857D01*
X197317857Y-128177857D02*
X198003572Y-128177857D01*
X197660714Y-128177857D02*
X197660714Y-126977857D01*
X197775000Y-127149286D01*
X197889286Y-127263571D01*
X198003572Y-127320714D01*
X196803572Y-128063571D02*
X196746429Y-128120714D01*
X196803572Y-128177857D01*
X196860715Y-128120714D01*
X196803572Y-128063571D01*
X196803572Y-128177857D01*
X196003571Y-126977857D02*
X195889286Y-126977857D01*
X195775000Y-127035000D01*
X195717857Y-127092143D01*
X195660714Y-127206429D01*
X195603571Y-127435000D01*
X195603571Y-127720714D01*
X195660714Y-127949286D01*
X195717857Y-128063571D01*
X195775000Y-128120714D01*
X195889286Y-128177857D01*
X196003571Y-128177857D01*
X196117857Y-128120714D01*
X196175000Y-128063571D01*
X196232143Y-127949286D01*
X196289286Y-127720714D01*
X196289286Y-127435000D01*
X196232143Y-127206429D01*
X196175000Y-127092143D01*
X196117857Y-127035000D01*
X196003571Y-126977857D01*
M02*
